G04 EAGLE Gerber RS-274X export*
G75*
%MOMM*%
%FSLAX34Y34*%
%LPD*%
%INTop Copper*%
%IPPOS*%
%AMOC8*
5,1,8,0,0,1.08239X$1,22.5*%
G01*
%ADD10P,3.409096X8X22.500000*%
%ADD11R,1.500000X2.600000*%
%ADD12C,4.000000*%
%ADD13C,0.254000*%

G36*
X774818Y113046D02*
X774818Y113046D01*
X774937Y113053D01*
X774975Y113066D01*
X775016Y113071D01*
X775126Y113114D01*
X775239Y113151D01*
X775274Y113173D01*
X775311Y113188D01*
X775407Y113258D01*
X775508Y113321D01*
X775536Y113351D01*
X775569Y113374D01*
X775645Y113466D01*
X775726Y113553D01*
X775746Y113588D01*
X775771Y113619D01*
X775822Y113727D01*
X775880Y113831D01*
X775890Y113871D01*
X775907Y113907D01*
X775929Y114024D01*
X775959Y114139D01*
X775963Y114200D01*
X775967Y114220D01*
X775965Y114240D01*
X775969Y114300D01*
X775969Y800100D01*
X775954Y800218D01*
X775947Y800337D01*
X775934Y800375D01*
X775929Y800416D01*
X775886Y800526D01*
X775849Y800639D01*
X775827Y800674D01*
X775812Y800711D01*
X775743Y800807D01*
X775679Y800908D01*
X775649Y800936D01*
X775626Y800969D01*
X775534Y801045D01*
X775447Y801126D01*
X775412Y801146D01*
X775381Y801171D01*
X775273Y801222D01*
X775169Y801280D01*
X775129Y801290D01*
X775093Y801307D01*
X774976Y801329D01*
X774861Y801359D01*
X774801Y801363D01*
X774781Y801367D01*
X774760Y801365D01*
X774700Y801369D01*
X0Y801369D01*
X-118Y801354D01*
X-237Y801347D01*
X-275Y801334D01*
X-316Y801329D01*
X-426Y801286D01*
X-539Y801249D01*
X-574Y801227D01*
X-611Y801212D01*
X-707Y801143D01*
X-808Y801079D01*
X-836Y801049D01*
X-869Y801026D01*
X-945Y800934D01*
X-1026Y800847D01*
X-1046Y800812D01*
X-1071Y800781D01*
X-1122Y800673D01*
X-1180Y800569D01*
X-1190Y800529D01*
X-1207Y800493D01*
X-1229Y800376D01*
X-1259Y800261D01*
X-1263Y800201D01*
X-1267Y800181D01*
X-1265Y800160D01*
X-1269Y800100D01*
X-1269Y114300D01*
X-1254Y114182D01*
X-1247Y114063D01*
X-1234Y114025D01*
X-1229Y113984D01*
X-1186Y113874D01*
X-1149Y113761D01*
X-1127Y113726D01*
X-1112Y113689D01*
X-1043Y113593D01*
X-979Y113492D01*
X-949Y113464D01*
X-926Y113431D01*
X-834Y113356D01*
X-747Y113274D01*
X-712Y113254D01*
X-681Y113229D01*
X-573Y113178D01*
X-469Y113120D01*
X-429Y113110D01*
X-393Y113093D01*
X-276Y113071D01*
X-161Y113041D01*
X-101Y113037D01*
X-81Y113033D01*
X-60Y113035D01*
X0Y113031D01*
X774700Y113031D01*
X774818Y113046D01*
G37*
%LPC*%
G36*
X620722Y168909D02*
X620722Y168909D01*
X603313Y186318D01*
X603235Y186378D01*
X603163Y186446D01*
X603110Y186475D01*
X603062Y186512D01*
X602971Y186552D01*
X602884Y186600D01*
X602826Y186615D01*
X602770Y186639D01*
X602672Y186654D01*
X602576Y186679D01*
X602476Y186685D01*
X602456Y186689D01*
X602444Y186687D01*
X602416Y186689D01*
X108458Y186689D01*
X108340Y186674D01*
X108221Y186667D01*
X108183Y186654D01*
X108142Y186649D01*
X108032Y186606D01*
X107919Y186569D01*
X107884Y186547D01*
X107847Y186532D01*
X107751Y186463D01*
X107650Y186399D01*
X107622Y186369D01*
X107589Y186346D01*
X107513Y186254D01*
X107432Y186167D01*
X107412Y186132D01*
X107387Y186101D01*
X107336Y185993D01*
X107278Y185889D01*
X107268Y185849D01*
X107251Y185813D01*
X107229Y185696D01*
X107199Y185581D01*
X107195Y185521D01*
X107191Y185501D01*
X107193Y185480D01*
X107189Y185420D01*
X107189Y182925D01*
X96475Y172211D01*
X81325Y172211D01*
X70611Y182925D01*
X70611Y198075D01*
X81325Y208789D01*
X96475Y208789D01*
X107189Y198075D01*
X107189Y195580D01*
X107204Y195462D01*
X107211Y195343D01*
X107224Y195305D01*
X107229Y195264D01*
X107272Y195154D01*
X107309Y195041D01*
X107331Y195006D01*
X107346Y194969D01*
X107415Y194873D01*
X107479Y194772D01*
X107509Y194744D01*
X107532Y194711D01*
X107624Y194635D01*
X107711Y194554D01*
X107746Y194534D01*
X107777Y194509D01*
X107885Y194458D01*
X107989Y194400D01*
X108029Y194390D01*
X108065Y194373D01*
X108182Y194351D01*
X108297Y194321D01*
X108357Y194317D01*
X108377Y194313D01*
X108398Y194315D01*
X108458Y194311D01*
X606098Y194311D01*
X620493Y179917D01*
X620602Y179831D01*
X620709Y179743D01*
X620728Y179734D01*
X620744Y179722D01*
X620872Y179666D01*
X620997Y179607D01*
X621017Y179603D01*
X621036Y179595D01*
X621174Y179573D01*
X621310Y179547D01*
X621330Y179549D01*
X621350Y179546D01*
X621489Y179559D01*
X621627Y179567D01*
X621646Y179573D01*
X621666Y179575D01*
X621798Y179623D01*
X621929Y179665D01*
X621947Y179676D01*
X621966Y179683D01*
X622081Y179761D01*
X622198Y179835D01*
X622212Y179850D01*
X622229Y179862D01*
X622321Y179966D01*
X622416Y180067D01*
X622426Y180085D01*
X622439Y180100D01*
X622503Y180224D01*
X622570Y180346D01*
X622575Y180365D01*
X622584Y180383D01*
X622614Y180519D01*
X622649Y180653D01*
X622651Y180682D01*
X622654Y180693D01*
X622653Y180714D01*
X622659Y180814D01*
X622659Y204552D01*
X624148Y206041D01*
X629920Y206041D01*
X630038Y206056D01*
X630157Y206063D01*
X630195Y206076D01*
X630236Y206081D01*
X630346Y206124D01*
X630459Y206161D01*
X630494Y206183D01*
X630531Y206198D01*
X630627Y206267D01*
X630728Y206331D01*
X630756Y206361D01*
X630789Y206384D01*
X630865Y206476D01*
X630946Y206563D01*
X630966Y206598D01*
X630991Y206629D01*
X631042Y206737D01*
X631100Y206841D01*
X631110Y206881D01*
X631127Y206917D01*
X631149Y207034D01*
X631179Y207149D01*
X631183Y207209D01*
X631187Y207229D01*
X631185Y207250D01*
X631189Y207310D01*
X631189Y364190D01*
X631174Y364308D01*
X631167Y364427D01*
X631154Y364465D01*
X631149Y364506D01*
X631106Y364616D01*
X631069Y364729D01*
X631047Y364764D01*
X631032Y364801D01*
X630963Y364897D01*
X630899Y364998D01*
X630869Y365026D01*
X630846Y365059D01*
X630754Y365135D01*
X630667Y365216D01*
X630632Y365236D01*
X630601Y365261D01*
X630493Y365312D01*
X630389Y365370D01*
X630349Y365380D01*
X630313Y365397D01*
X630196Y365419D01*
X630081Y365449D01*
X630021Y365453D01*
X630001Y365457D01*
X629980Y365455D01*
X629920Y365459D01*
X624148Y365459D01*
X622659Y366948D01*
X622659Y375920D01*
X622644Y376038D01*
X622637Y376157D01*
X622624Y376195D01*
X622619Y376236D01*
X622576Y376346D01*
X622539Y376459D01*
X622517Y376494D01*
X622502Y376531D01*
X622433Y376627D01*
X622369Y376728D01*
X622339Y376756D01*
X622316Y376789D01*
X622224Y376865D01*
X622137Y376946D01*
X622102Y376966D01*
X622071Y376991D01*
X621963Y377042D01*
X621859Y377100D01*
X621819Y377110D01*
X621783Y377127D01*
X621666Y377149D01*
X621551Y377179D01*
X621491Y377183D01*
X621471Y377187D01*
X621450Y377185D01*
X621390Y377189D01*
X404668Y377189D01*
X404638Y377186D01*
X404609Y377188D01*
X404481Y377166D01*
X404352Y377149D01*
X404325Y377139D01*
X404295Y377134D01*
X404177Y377080D01*
X404056Y377032D01*
X404032Y377015D01*
X404006Y377003D01*
X403904Y376922D01*
X403799Y376846D01*
X403780Y376823D01*
X403757Y376804D01*
X403679Y376701D01*
X403596Y376601D01*
X403584Y376574D01*
X403566Y376550D01*
X403495Y376406D01*
X400109Y368232D01*
X393768Y361891D01*
X385484Y358459D01*
X376516Y358459D01*
X368232Y361891D01*
X361891Y368232D01*
X358459Y376516D01*
X358459Y385484D01*
X361891Y393768D01*
X368232Y400109D01*
X376516Y403541D01*
X385484Y403541D01*
X393768Y400109D01*
X400109Y393768D01*
X403495Y385594D01*
X403510Y385569D01*
X403519Y385541D01*
X403588Y385431D01*
X403652Y385318D01*
X403673Y385297D01*
X403689Y385272D01*
X403783Y385183D01*
X403874Y385090D01*
X403899Y385074D01*
X403920Y385054D01*
X404034Y384991D01*
X404145Y384923D01*
X404173Y384915D01*
X404199Y384900D01*
X404325Y384868D01*
X404449Y384830D01*
X404478Y384828D01*
X404507Y384821D01*
X404668Y384811D01*
X621390Y384811D01*
X621508Y384826D01*
X621627Y384833D01*
X621665Y384846D01*
X621706Y384851D01*
X621816Y384894D01*
X621929Y384931D01*
X621964Y384953D01*
X622001Y384968D01*
X622097Y385037D01*
X622198Y385101D01*
X622226Y385131D01*
X622259Y385154D01*
X622335Y385246D01*
X622416Y385333D01*
X622436Y385368D01*
X622461Y385399D01*
X622512Y385507D01*
X622570Y385611D01*
X622580Y385651D01*
X622597Y385687D01*
X622619Y385804D01*
X622649Y385919D01*
X622653Y385979D01*
X622657Y385999D01*
X622655Y386020D01*
X622659Y386080D01*
X622659Y395052D01*
X624148Y396541D01*
X641252Y396541D01*
X642741Y395052D01*
X642741Y366948D01*
X641252Y365459D01*
X640080Y365459D01*
X639962Y365444D01*
X639843Y365437D01*
X639805Y365424D01*
X639764Y365419D01*
X639654Y365376D01*
X639541Y365339D01*
X639506Y365317D01*
X639469Y365302D01*
X639373Y365233D01*
X639272Y365169D01*
X639244Y365139D01*
X639211Y365116D01*
X639135Y365024D01*
X639054Y364937D01*
X639034Y364902D01*
X639009Y364871D01*
X638958Y364763D01*
X638900Y364659D01*
X638890Y364619D01*
X638873Y364583D01*
X638851Y364466D01*
X638821Y364351D01*
X638817Y364291D01*
X638813Y364271D01*
X638815Y364250D01*
X638811Y364190D01*
X638811Y207310D01*
X638826Y207192D01*
X638833Y207073D01*
X638846Y207035D01*
X638851Y206994D01*
X638894Y206884D01*
X638931Y206771D01*
X638953Y206736D01*
X638968Y206699D01*
X639037Y206603D01*
X639101Y206502D01*
X639131Y206474D01*
X639154Y206441D01*
X639246Y206365D01*
X639333Y206284D01*
X639368Y206264D01*
X639399Y206239D01*
X639507Y206188D01*
X639611Y206130D01*
X639651Y206120D01*
X639687Y206103D01*
X639804Y206081D01*
X639919Y206051D01*
X639979Y206047D01*
X639999Y206043D01*
X640020Y206045D01*
X640080Y206041D01*
X641252Y206041D01*
X642741Y204552D01*
X642741Y181294D01*
X642758Y181157D01*
X642771Y181018D01*
X642778Y180999D01*
X642781Y180979D01*
X642832Y180850D01*
X642879Y180719D01*
X642890Y180702D01*
X642898Y180683D01*
X642979Y180571D01*
X643057Y180455D01*
X643073Y180442D01*
X643084Y180426D01*
X643192Y180337D01*
X643296Y180245D01*
X643314Y180236D01*
X643329Y180223D01*
X643455Y180164D01*
X643579Y180100D01*
X643599Y180096D01*
X643617Y180087D01*
X643753Y180061D01*
X643889Y180031D01*
X643910Y180031D01*
X643929Y180027D01*
X644068Y180036D01*
X644207Y180040D01*
X644227Y180046D01*
X644247Y180047D01*
X644379Y180090D01*
X644513Y180129D01*
X644530Y180139D01*
X644549Y180145D01*
X644667Y180220D01*
X644787Y180290D01*
X644808Y180309D01*
X644818Y180315D01*
X644832Y180330D01*
X644907Y180397D01*
X652288Y187777D01*
X652348Y187855D01*
X652416Y187927D01*
X652445Y187980D01*
X652482Y188028D01*
X652522Y188119D01*
X652570Y188206D01*
X652585Y188264D01*
X652609Y188320D01*
X652624Y188418D01*
X652649Y188514D01*
X652655Y188614D01*
X652659Y188634D01*
X652657Y188646D01*
X652659Y188674D01*
X652659Y204552D01*
X654148Y206041D01*
X657860Y206041D01*
X657978Y206056D01*
X658097Y206063D01*
X658135Y206076D01*
X658176Y206081D01*
X658286Y206124D01*
X658399Y206161D01*
X658434Y206183D01*
X658471Y206198D01*
X658567Y206267D01*
X658668Y206331D01*
X658696Y206361D01*
X658729Y206384D01*
X658805Y206476D01*
X658886Y206563D01*
X658906Y206598D01*
X658931Y206629D01*
X658982Y206737D01*
X659040Y206841D01*
X659050Y206881D01*
X659067Y206917D01*
X659089Y207034D01*
X659119Y207149D01*
X659123Y207209D01*
X659127Y207229D01*
X659125Y207250D01*
X659129Y207310D01*
X659129Y364190D01*
X659114Y364308D01*
X659107Y364427D01*
X659094Y364465D01*
X659089Y364506D01*
X659046Y364616D01*
X659009Y364729D01*
X658987Y364764D01*
X658972Y364801D01*
X658903Y364897D01*
X658839Y364998D01*
X658809Y365026D01*
X658786Y365059D01*
X658694Y365135D01*
X658607Y365216D01*
X658572Y365236D01*
X658541Y365261D01*
X658433Y365312D01*
X658329Y365370D01*
X658289Y365380D01*
X658253Y365397D01*
X658136Y365419D01*
X658021Y365449D01*
X657961Y365453D01*
X657941Y365457D01*
X657920Y365455D01*
X657860Y365459D01*
X654148Y365459D01*
X652659Y366948D01*
X652659Y395052D01*
X654148Y396541D01*
X671252Y396541D01*
X672741Y395052D01*
X672741Y366948D01*
X671252Y365459D01*
X668020Y365459D01*
X667902Y365444D01*
X667783Y365437D01*
X667745Y365424D01*
X667704Y365419D01*
X667594Y365376D01*
X667481Y365339D01*
X667446Y365317D01*
X667409Y365302D01*
X667313Y365233D01*
X667212Y365169D01*
X667184Y365139D01*
X667151Y365116D01*
X667075Y365024D01*
X666994Y364937D01*
X666974Y364902D01*
X666949Y364871D01*
X666898Y364763D01*
X666840Y364659D01*
X666830Y364619D01*
X666813Y364583D01*
X666791Y364466D01*
X666761Y364351D01*
X666757Y364291D01*
X666753Y364271D01*
X666755Y364250D01*
X666751Y364190D01*
X666751Y207310D01*
X666766Y207192D01*
X666773Y207073D01*
X666786Y207035D01*
X666791Y206994D01*
X666834Y206884D01*
X666871Y206771D01*
X666893Y206736D01*
X666908Y206699D01*
X666977Y206603D01*
X667041Y206502D01*
X667071Y206474D01*
X667094Y206441D01*
X667186Y206365D01*
X667273Y206284D01*
X667308Y206264D01*
X667339Y206239D01*
X667447Y206188D01*
X667551Y206130D01*
X667591Y206120D01*
X667627Y206103D01*
X667744Y206081D01*
X667859Y206051D01*
X667919Y206047D01*
X667939Y206043D01*
X667960Y206045D01*
X668020Y206041D01*
X671252Y206041D01*
X672741Y204552D01*
X672741Y176448D01*
X671252Y174959D01*
X654148Y174959D01*
X653096Y176011D01*
X653002Y176084D01*
X652912Y176163D01*
X652876Y176182D01*
X652844Y176206D01*
X652735Y176254D01*
X652629Y176308D01*
X652590Y176317D01*
X652552Y176333D01*
X652435Y176351D01*
X652319Y176377D01*
X652278Y176376D01*
X652238Y176382D01*
X652120Y176371D01*
X652001Y176368D01*
X651962Y176356D01*
X651922Y176353D01*
X651809Y176312D01*
X651695Y176279D01*
X651661Y176259D01*
X651622Y176245D01*
X651524Y176178D01*
X651421Y176118D01*
X651376Y176078D01*
X651359Y176066D01*
X651346Y176051D01*
X651301Y176011D01*
X644198Y168909D01*
X620722Y168909D01*
G37*
%LPD*%
%LPC*%
G36*
X94025Y553211D02*
X94025Y553211D01*
X83311Y563925D01*
X83311Y579075D01*
X94025Y589789D01*
X109175Y589789D01*
X119889Y579075D01*
X119889Y576580D01*
X119904Y576462D01*
X119911Y576343D01*
X119924Y576305D01*
X119929Y576264D01*
X119972Y576154D01*
X120009Y576041D01*
X120031Y576006D01*
X120046Y575969D01*
X120115Y575873D01*
X120179Y575772D01*
X120209Y575744D01*
X120232Y575711D01*
X120324Y575635D01*
X120411Y575554D01*
X120446Y575534D01*
X120477Y575509D01*
X120585Y575458D01*
X120689Y575400D01*
X120729Y575390D01*
X120765Y575373D01*
X120882Y575351D01*
X120997Y575321D01*
X121057Y575317D01*
X121077Y575313D01*
X121098Y575315D01*
X121158Y575311D01*
X608690Y575311D01*
X608808Y575326D01*
X608927Y575333D01*
X608965Y575346D01*
X609006Y575351D01*
X609116Y575394D01*
X609229Y575431D01*
X609264Y575453D01*
X609301Y575468D01*
X609397Y575537D01*
X609498Y575601D01*
X609526Y575631D01*
X609559Y575654D01*
X609635Y575746D01*
X609716Y575833D01*
X609736Y575868D01*
X609761Y575899D01*
X609812Y576007D01*
X609870Y576111D01*
X609880Y576151D01*
X609897Y576187D01*
X609919Y576304D01*
X609949Y576419D01*
X609953Y576479D01*
X609957Y576499D01*
X609955Y576520D01*
X609959Y576580D01*
X609959Y585552D01*
X611448Y587041D01*
X628552Y587041D01*
X630041Y585552D01*
X630041Y557448D01*
X628552Y555959D01*
X611448Y555959D01*
X609959Y557448D01*
X609959Y566420D01*
X609944Y566538D01*
X609937Y566657D01*
X609924Y566695D01*
X609919Y566736D01*
X609876Y566846D01*
X609839Y566959D01*
X609817Y566994D01*
X609802Y567031D01*
X609733Y567127D01*
X609669Y567228D01*
X609639Y567256D01*
X609616Y567289D01*
X609524Y567365D01*
X609437Y567446D01*
X609402Y567466D01*
X609371Y567491D01*
X609263Y567542D01*
X609159Y567600D01*
X609119Y567610D01*
X609083Y567627D01*
X608966Y567649D01*
X608851Y567679D01*
X608791Y567683D01*
X608771Y567687D01*
X608750Y567685D01*
X608690Y567689D01*
X121158Y567689D01*
X121040Y567674D01*
X120921Y567667D01*
X120883Y567654D01*
X120842Y567649D01*
X120732Y567606D01*
X120619Y567569D01*
X120584Y567547D01*
X120547Y567532D01*
X120451Y567463D01*
X120350Y567399D01*
X120322Y567369D01*
X120289Y567346D01*
X120213Y567254D01*
X120132Y567167D01*
X120112Y567132D01*
X120087Y567101D01*
X120036Y566993D01*
X119978Y566889D01*
X119968Y566849D01*
X119951Y566813D01*
X119929Y566696D01*
X119899Y566581D01*
X119895Y566521D01*
X119891Y566501D01*
X119893Y566480D01*
X119889Y566420D01*
X119889Y563925D01*
X109175Y553211D01*
X94025Y553211D01*
G37*
%LPD*%
%LPC*%
G36*
X81325Y223011D02*
X81325Y223011D01*
X70611Y233725D01*
X70611Y248875D01*
X81325Y259589D01*
X96475Y259589D01*
X107189Y248875D01*
X107189Y246380D01*
X107204Y246262D01*
X107211Y246143D01*
X107224Y246105D01*
X107229Y246064D01*
X107272Y245954D01*
X107309Y245841D01*
X107331Y245806D01*
X107346Y245769D01*
X107415Y245673D01*
X107479Y245572D01*
X107509Y245544D01*
X107532Y245511D01*
X107624Y245435D01*
X107711Y245354D01*
X107746Y245334D01*
X107777Y245309D01*
X107885Y245258D01*
X107989Y245200D01*
X108029Y245190D01*
X108065Y245173D01*
X108182Y245151D01*
X108297Y245121D01*
X108357Y245117D01*
X108377Y245113D01*
X108398Y245115D01*
X108458Y245111D01*
X137596Y245111D01*
X137694Y245123D01*
X137793Y245126D01*
X137851Y245143D01*
X137911Y245151D01*
X138003Y245187D01*
X138099Y245215D01*
X138151Y245245D01*
X138207Y245268D01*
X138287Y245326D01*
X138372Y245376D01*
X138448Y245442D01*
X138464Y245454D01*
X138472Y245464D01*
X138493Y245482D01*
X259970Y366959D01*
X259988Y366982D01*
X260011Y367002D01*
X260085Y367108D01*
X260165Y367210D01*
X260177Y367237D01*
X260194Y367262D01*
X260240Y367383D01*
X260291Y367502D01*
X260296Y367531D01*
X260306Y367559D01*
X260321Y367688D01*
X260341Y367816D01*
X260338Y367846D01*
X260342Y367875D01*
X260323Y368004D01*
X260311Y368133D01*
X260301Y368161D01*
X260297Y368190D01*
X260245Y368342D01*
X256859Y376516D01*
X256859Y385484D01*
X260291Y393768D01*
X266632Y400109D01*
X274916Y403541D01*
X283884Y403541D01*
X292168Y400109D01*
X298509Y393768D01*
X301941Y385484D01*
X301941Y376516D01*
X298509Y368232D01*
X292168Y361891D01*
X283884Y358459D01*
X274916Y358459D01*
X266742Y361845D01*
X266714Y361853D01*
X266688Y361866D01*
X266561Y361895D01*
X266436Y361929D01*
X266406Y361929D01*
X266377Y361936D01*
X266247Y361932D01*
X266118Y361934D01*
X266089Y361927D01*
X266059Y361926D01*
X265935Y361890D01*
X265808Y361860D01*
X265782Y361846D01*
X265754Y361838D01*
X265642Y361772D01*
X265527Y361711D01*
X265505Y361691D01*
X265480Y361676D01*
X265359Y361570D01*
X141278Y237489D01*
X108458Y237489D01*
X108340Y237474D01*
X108221Y237467D01*
X108183Y237454D01*
X108142Y237449D01*
X108032Y237406D01*
X107919Y237369D01*
X107884Y237347D01*
X107847Y237332D01*
X107751Y237263D01*
X107650Y237199D01*
X107622Y237169D01*
X107589Y237146D01*
X107513Y237054D01*
X107432Y236967D01*
X107412Y236932D01*
X107387Y236901D01*
X107336Y236793D01*
X107278Y236689D01*
X107268Y236649D01*
X107251Y236613D01*
X107229Y236496D01*
X107199Y236381D01*
X107195Y236321D01*
X107191Y236301D01*
X107193Y236280D01*
X107189Y236220D01*
X107189Y233725D01*
X96475Y223011D01*
X81325Y223011D01*
G37*
%LPD*%
%LPC*%
G36*
X94025Y604011D02*
X94025Y604011D01*
X83311Y614725D01*
X83311Y629875D01*
X94025Y640589D01*
X109175Y640589D01*
X119889Y629875D01*
X119889Y627380D01*
X119904Y627262D01*
X119911Y627143D01*
X119924Y627105D01*
X119929Y627064D01*
X119972Y626954D01*
X120009Y626841D01*
X120031Y626806D01*
X120046Y626769D01*
X120115Y626673D01*
X120179Y626572D01*
X120209Y626544D01*
X120232Y626511D01*
X120324Y626435D01*
X120411Y626354D01*
X120446Y626334D01*
X120477Y626309D01*
X120585Y626258D01*
X120689Y626200D01*
X120729Y626190D01*
X120765Y626173D01*
X120882Y626151D01*
X120997Y626121D01*
X121057Y626117D01*
X121077Y626113D01*
X121098Y626115D01*
X121158Y626111D01*
X175696Y626111D01*
X175794Y626123D01*
X175893Y626126D01*
X175951Y626143D01*
X176011Y626151D01*
X176103Y626187D01*
X176199Y626215D01*
X176251Y626245D01*
X176307Y626268D01*
X176387Y626326D01*
X176472Y626376D01*
X176548Y626442D01*
X176564Y626454D01*
X176572Y626464D01*
X176593Y626482D01*
X259970Y709859D01*
X259988Y709882D01*
X260011Y709902D01*
X260085Y710008D01*
X260165Y710110D01*
X260177Y710137D01*
X260194Y710162D01*
X260240Y710283D01*
X260291Y710402D01*
X260296Y710431D01*
X260306Y710459D01*
X260321Y710588D01*
X260341Y710716D01*
X260338Y710746D01*
X260342Y710775D01*
X260323Y710904D01*
X260311Y711033D01*
X260301Y711061D01*
X260297Y711090D01*
X260245Y711242D01*
X256859Y719416D01*
X256859Y728384D01*
X260291Y736668D01*
X266632Y743009D01*
X274916Y746441D01*
X283884Y746441D01*
X292168Y743009D01*
X298509Y736668D01*
X301941Y728384D01*
X301941Y719416D01*
X298509Y711132D01*
X292168Y704791D01*
X283884Y701359D01*
X274916Y701359D01*
X266742Y704745D01*
X266714Y704753D01*
X266688Y704766D01*
X266561Y704795D01*
X266436Y704829D01*
X266406Y704829D01*
X266377Y704836D01*
X266247Y704832D01*
X266118Y704834D01*
X266089Y704827D01*
X266059Y704826D01*
X265935Y704790D01*
X265808Y704760D01*
X265782Y704746D01*
X265754Y704738D01*
X265642Y704672D01*
X265527Y704611D01*
X265505Y704591D01*
X265480Y704576D01*
X265359Y704470D01*
X179378Y618489D01*
X121158Y618489D01*
X121040Y618474D01*
X120921Y618467D01*
X120883Y618454D01*
X120842Y618449D01*
X120732Y618406D01*
X120619Y618369D01*
X120584Y618347D01*
X120547Y618332D01*
X120451Y618263D01*
X120350Y618199D01*
X120322Y618169D01*
X120289Y618146D01*
X120213Y618054D01*
X120132Y617967D01*
X120112Y617932D01*
X120087Y617901D01*
X120036Y617793D01*
X119978Y617689D01*
X119968Y617649D01*
X119951Y617613D01*
X119929Y617496D01*
X119899Y617381D01*
X119895Y617321D01*
X119891Y617301D01*
X119893Y617280D01*
X119889Y617220D01*
X119889Y614725D01*
X109175Y604011D01*
X94025Y604011D01*
G37*
%LPD*%
%LPC*%
G36*
X376516Y701359D02*
X376516Y701359D01*
X368232Y704791D01*
X361891Y711132D01*
X358459Y719416D01*
X358459Y728384D01*
X361891Y736668D01*
X368232Y743009D01*
X376516Y746441D01*
X385484Y746441D01*
X393768Y743009D01*
X400109Y736668D01*
X403495Y728494D01*
X403510Y728469D01*
X403519Y728441D01*
X403588Y728331D01*
X403652Y728218D01*
X403673Y728197D01*
X403689Y728172D01*
X403783Y728083D01*
X403874Y727990D01*
X403899Y727974D01*
X403920Y727954D01*
X404034Y727891D01*
X404145Y727823D01*
X404173Y727815D01*
X404199Y727800D01*
X404325Y727768D01*
X404449Y727730D01*
X404478Y727728D01*
X404507Y727721D01*
X404668Y727711D01*
X608690Y727711D01*
X608808Y727726D01*
X608927Y727733D01*
X608965Y727746D01*
X609006Y727751D01*
X609116Y727794D01*
X609229Y727831D01*
X609264Y727853D01*
X609301Y727868D01*
X609397Y727937D01*
X609498Y728001D01*
X609526Y728031D01*
X609559Y728054D01*
X609635Y728146D01*
X609716Y728233D01*
X609736Y728268D01*
X609761Y728299D01*
X609812Y728407D01*
X609870Y728511D01*
X609880Y728551D01*
X609897Y728587D01*
X609919Y728704D01*
X609949Y728819D01*
X609953Y728879D01*
X609957Y728899D01*
X609955Y728920D01*
X609959Y728980D01*
X609959Y737952D01*
X611448Y739441D01*
X628552Y739441D01*
X630041Y737952D01*
X630041Y709848D01*
X628552Y708359D01*
X611448Y708359D01*
X609959Y709848D01*
X609959Y718820D01*
X609944Y718938D01*
X609937Y719057D01*
X609924Y719095D01*
X609919Y719136D01*
X609876Y719246D01*
X609839Y719359D01*
X609817Y719394D01*
X609802Y719431D01*
X609733Y719527D01*
X609669Y719628D01*
X609639Y719656D01*
X609616Y719689D01*
X609524Y719765D01*
X609437Y719846D01*
X609402Y719866D01*
X609371Y719891D01*
X609263Y719942D01*
X609159Y720000D01*
X609119Y720010D01*
X609083Y720027D01*
X608966Y720049D01*
X608851Y720079D01*
X608791Y720083D01*
X608771Y720087D01*
X608750Y720085D01*
X608690Y720089D01*
X404668Y720089D01*
X404638Y720086D01*
X404609Y720088D01*
X404481Y720066D01*
X404352Y720049D01*
X404325Y720039D01*
X404295Y720034D01*
X404177Y719980D01*
X404056Y719932D01*
X404032Y719915D01*
X404006Y719903D01*
X403904Y719822D01*
X403799Y719746D01*
X403780Y719723D01*
X403757Y719704D01*
X403679Y719601D01*
X403596Y719501D01*
X403584Y719474D01*
X403566Y719450D01*
X403495Y719306D01*
X400109Y711132D01*
X393768Y704791D01*
X385484Y701359D01*
X376516Y701359D01*
G37*
%LPD*%
%LPC*%
G36*
X641448Y555959D02*
X641448Y555959D01*
X639959Y557448D01*
X639959Y585552D01*
X641448Y587041D01*
X645160Y587041D01*
X645278Y587056D01*
X645397Y587063D01*
X645435Y587076D01*
X645476Y587081D01*
X645586Y587124D01*
X645699Y587161D01*
X645734Y587183D01*
X645771Y587198D01*
X645867Y587267D01*
X645968Y587331D01*
X645996Y587361D01*
X646029Y587384D01*
X646105Y587476D01*
X646186Y587563D01*
X646206Y587598D01*
X646231Y587629D01*
X646282Y587737D01*
X646340Y587841D01*
X646350Y587881D01*
X646367Y587917D01*
X646389Y588034D01*
X646419Y588149D01*
X646423Y588209D01*
X646427Y588229D01*
X646425Y588250D01*
X646429Y588310D01*
X646429Y707090D01*
X646414Y707208D01*
X646407Y707327D01*
X646394Y707365D01*
X646389Y707406D01*
X646346Y707516D01*
X646309Y707629D01*
X646287Y707664D01*
X646272Y707701D01*
X646203Y707797D01*
X646139Y707898D01*
X646109Y707926D01*
X646086Y707959D01*
X645994Y708035D01*
X645907Y708116D01*
X645872Y708136D01*
X645841Y708161D01*
X645733Y708212D01*
X645629Y708270D01*
X645589Y708280D01*
X645553Y708297D01*
X645436Y708319D01*
X645321Y708349D01*
X645261Y708353D01*
X645241Y708357D01*
X645220Y708355D01*
X645160Y708359D01*
X641448Y708359D01*
X639959Y709848D01*
X639959Y737952D01*
X641448Y739441D01*
X658552Y739441D01*
X660041Y737952D01*
X660041Y709848D01*
X658552Y708359D01*
X655320Y708359D01*
X655202Y708344D01*
X655083Y708337D01*
X655045Y708324D01*
X655004Y708319D01*
X654894Y708276D01*
X654781Y708239D01*
X654746Y708217D01*
X654709Y708202D01*
X654613Y708133D01*
X654512Y708069D01*
X654484Y708039D01*
X654451Y708016D01*
X654375Y707924D01*
X654294Y707837D01*
X654274Y707802D01*
X654249Y707771D01*
X654198Y707663D01*
X654140Y707559D01*
X654130Y707519D01*
X654113Y707483D01*
X654091Y707366D01*
X654061Y707251D01*
X654057Y707191D01*
X654053Y707171D01*
X654055Y707150D01*
X654051Y707090D01*
X654051Y588310D01*
X654066Y588192D01*
X654073Y588073D01*
X654086Y588035D01*
X654091Y587994D01*
X654134Y587884D01*
X654171Y587771D01*
X654193Y587736D01*
X654208Y587699D01*
X654277Y587603D01*
X654341Y587502D01*
X654371Y587474D01*
X654394Y587441D01*
X654486Y587365D01*
X654573Y587284D01*
X654608Y587264D01*
X654639Y587239D01*
X654747Y587188D01*
X654851Y587130D01*
X654891Y587120D01*
X654927Y587103D01*
X655044Y587081D01*
X655159Y587051D01*
X655219Y587047D01*
X655239Y587043D01*
X655260Y587045D01*
X655320Y587041D01*
X658552Y587041D01*
X660041Y585552D01*
X660041Y557448D01*
X658552Y555959D01*
X641448Y555959D01*
G37*
%LPD*%
D10*
X101600Y571500D03*
X101600Y622300D03*
X88900Y190500D03*
X88900Y241300D03*
D11*
X632700Y190500D03*
X662700Y190500D03*
X632700Y381000D03*
X662700Y381000D03*
X620000Y723900D03*
X650000Y723900D03*
X650000Y571500D03*
X620000Y571500D03*
D12*
X279400Y381000D03*
X381000Y381000D03*
X279400Y723900D03*
X381000Y723900D03*
D13*
X139700Y241300D02*
X88900Y241300D01*
X139700Y241300D02*
X279400Y381000D01*
X635000Y381000D02*
X635000Y190500D01*
X632700Y190500D01*
X632700Y381000D02*
X635000Y381000D01*
X632700Y381000D02*
X381000Y381000D01*
X662940Y381000D02*
X662940Y190500D01*
X662700Y190500D01*
X662940Y381000D02*
X662700Y381000D01*
X604520Y190500D02*
X88900Y190500D01*
X604520Y190500D02*
X622300Y172720D01*
X642620Y172720D01*
X660400Y190500D01*
X662700Y190500D01*
X177800Y622300D02*
X101600Y622300D01*
X177800Y622300D02*
X279400Y723900D01*
X381000Y723900D02*
X620000Y723900D01*
X650240Y723900D02*
X650240Y571500D01*
X650000Y571500D01*
X650240Y723900D02*
X650000Y723900D01*
X620000Y571500D02*
X101600Y571500D01*
M02*
