G04 EAGLE Gerber RS-274X export*
G75*
%MOMM*%
%FSLAX34Y34*%
%LPD*%
%INSilkscreen Top*%
%IPPOS*%
%AMOC8*
5,1,8,0,0,1.08239X$1,22.5*%
G01*
%ADD10C,0.152400*%
%ADD11C,0.254000*%
%ADD12C,0.203200*%
%ADD13C,0.127000*%
%ADD14C,0.101600*%
%ADD15C,0.010000*%


D10*
X38862Y750062D02*
X38862Y766318D01*
X47893Y766318D02*
X38862Y756384D01*
X42474Y759996D02*
X47893Y750062D01*
X56710Y756384D02*
X60774Y756384D01*
X56710Y756384D02*
X56598Y756382D01*
X56487Y756376D01*
X56376Y756366D01*
X56265Y756353D01*
X56155Y756335D01*
X56046Y756313D01*
X55937Y756288D01*
X55829Y756259D01*
X55723Y756226D01*
X55617Y756189D01*
X55513Y756149D01*
X55411Y756105D01*
X55310Y756057D01*
X55211Y756006D01*
X55113Y755951D01*
X55018Y755893D01*
X54925Y755832D01*
X54834Y755767D01*
X54745Y755699D01*
X54659Y755628D01*
X54576Y755555D01*
X54495Y755478D01*
X54416Y755398D01*
X54341Y755316D01*
X54269Y755231D01*
X54199Y755144D01*
X54133Y755054D01*
X54070Y754962D01*
X54010Y754867D01*
X53954Y754771D01*
X53901Y754673D01*
X53852Y754573D01*
X53806Y754471D01*
X53764Y754368D01*
X53725Y754263D01*
X53690Y754157D01*
X53659Y754050D01*
X53632Y753942D01*
X53608Y753833D01*
X53589Y753723D01*
X53573Y753613D01*
X53561Y753502D01*
X53553Y753390D01*
X53549Y753279D01*
X53549Y753167D01*
X53553Y753056D01*
X53561Y752944D01*
X53573Y752833D01*
X53589Y752723D01*
X53608Y752613D01*
X53632Y752504D01*
X53659Y752396D01*
X53690Y752289D01*
X53725Y752183D01*
X53764Y752078D01*
X53806Y751975D01*
X53852Y751873D01*
X53901Y751773D01*
X53954Y751675D01*
X54010Y751579D01*
X54070Y751484D01*
X54133Y751392D01*
X54199Y751302D01*
X54269Y751215D01*
X54341Y751130D01*
X54416Y751048D01*
X54495Y750968D01*
X54576Y750891D01*
X54659Y750818D01*
X54745Y750747D01*
X54834Y750679D01*
X54925Y750614D01*
X55018Y750553D01*
X55113Y750495D01*
X55211Y750440D01*
X55310Y750389D01*
X55411Y750341D01*
X55513Y750297D01*
X55617Y750257D01*
X55723Y750220D01*
X55829Y750187D01*
X55937Y750158D01*
X56046Y750133D01*
X56155Y750111D01*
X56265Y750093D01*
X56376Y750080D01*
X56487Y750070D01*
X56598Y750064D01*
X56710Y750062D01*
X60774Y750062D01*
X60774Y758190D01*
X60772Y758291D01*
X60766Y758392D01*
X60757Y758493D01*
X60744Y758594D01*
X60727Y758694D01*
X60706Y758793D01*
X60682Y758891D01*
X60654Y758988D01*
X60622Y759085D01*
X60587Y759180D01*
X60548Y759273D01*
X60506Y759365D01*
X60460Y759456D01*
X60411Y759545D01*
X60359Y759631D01*
X60303Y759716D01*
X60245Y759799D01*
X60183Y759879D01*
X60118Y759957D01*
X60051Y760033D01*
X59981Y760106D01*
X59908Y760176D01*
X59832Y760243D01*
X59754Y760308D01*
X59674Y760370D01*
X59591Y760428D01*
X59506Y760484D01*
X59420Y760536D01*
X59331Y760585D01*
X59240Y760631D01*
X59148Y760673D01*
X59055Y760712D01*
X58960Y760747D01*
X58863Y760779D01*
X58766Y760807D01*
X58668Y760831D01*
X58569Y760852D01*
X58469Y760869D01*
X58368Y760882D01*
X58267Y760891D01*
X58166Y760897D01*
X58065Y760899D01*
X54452Y760899D01*
X67169Y744643D02*
X68976Y744643D01*
X74394Y760899D01*
X67169Y760899D02*
X70782Y750062D01*
X80432Y752771D02*
X80432Y766318D01*
X80433Y752771D02*
X80435Y752670D01*
X80441Y752569D01*
X80450Y752468D01*
X80463Y752367D01*
X80480Y752267D01*
X80501Y752168D01*
X80525Y752070D01*
X80553Y751973D01*
X80585Y751876D01*
X80620Y751781D01*
X80659Y751688D01*
X80701Y751596D01*
X80747Y751505D01*
X80796Y751417D01*
X80848Y751330D01*
X80904Y751245D01*
X80962Y751162D01*
X81024Y751082D01*
X81089Y751004D01*
X81156Y750928D01*
X81226Y750855D01*
X81299Y750785D01*
X81375Y750718D01*
X81453Y750653D01*
X81533Y750591D01*
X81616Y750533D01*
X81701Y750477D01*
X81788Y750425D01*
X81876Y750376D01*
X81967Y750330D01*
X82059Y750288D01*
X82152Y750249D01*
X82247Y750214D01*
X82344Y750182D01*
X82441Y750154D01*
X82539Y750130D01*
X82638Y750109D01*
X82738Y750092D01*
X82839Y750079D01*
X82940Y750070D01*
X83041Y750064D01*
X83142Y750062D01*
X91620Y756384D02*
X95684Y756384D01*
X91620Y756384D02*
X91508Y756382D01*
X91397Y756376D01*
X91286Y756366D01*
X91175Y756353D01*
X91065Y756335D01*
X90956Y756313D01*
X90847Y756288D01*
X90739Y756259D01*
X90633Y756226D01*
X90527Y756189D01*
X90423Y756149D01*
X90321Y756105D01*
X90220Y756057D01*
X90121Y756006D01*
X90023Y755951D01*
X89928Y755893D01*
X89835Y755832D01*
X89744Y755767D01*
X89655Y755699D01*
X89569Y755628D01*
X89486Y755555D01*
X89405Y755478D01*
X89326Y755398D01*
X89251Y755316D01*
X89179Y755231D01*
X89109Y755144D01*
X89043Y755054D01*
X88980Y754962D01*
X88920Y754867D01*
X88864Y754771D01*
X88811Y754673D01*
X88762Y754573D01*
X88716Y754471D01*
X88674Y754368D01*
X88635Y754263D01*
X88600Y754157D01*
X88569Y754050D01*
X88542Y753942D01*
X88518Y753833D01*
X88499Y753723D01*
X88483Y753613D01*
X88471Y753502D01*
X88463Y753390D01*
X88459Y753279D01*
X88459Y753167D01*
X88463Y753056D01*
X88471Y752944D01*
X88483Y752833D01*
X88499Y752723D01*
X88518Y752613D01*
X88542Y752504D01*
X88569Y752396D01*
X88600Y752289D01*
X88635Y752183D01*
X88674Y752078D01*
X88716Y751975D01*
X88762Y751873D01*
X88811Y751773D01*
X88864Y751675D01*
X88920Y751579D01*
X88980Y751484D01*
X89043Y751392D01*
X89109Y751302D01*
X89179Y751215D01*
X89251Y751130D01*
X89326Y751048D01*
X89405Y750968D01*
X89486Y750891D01*
X89569Y750818D01*
X89655Y750747D01*
X89744Y750679D01*
X89835Y750614D01*
X89928Y750553D01*
X90023Y750495D01*
X90121Y750440D01*
X90220Y750389D01*
X90321Y750341D01*
X90423Y750297D01*
X90527Y750257D01*
X90633Y750220D01*
X90739Y750187D01*
X90847Y750158D01*
X90956Y750133D01*
X91065Y750111D01*
X91175Y750093D01*
X91286Y750080D01*
X91397Y750070D01*
X91508Y750064D01*
X91620Y750062D01*
X95684Y750062D01*
X95684Y758190D01*
X95683Y758190D02*
X95681Y758291D01*
X95675Y758392D01*
X95666Y758493D01*
X95653Y758594D01*
X95636Y758694D01*
X95615Y758793D01*
X95591Y758891D01*
X95563Y758988D01*
X95531Y759085D01*
X95496Y759180D01*
X95457Y759273D01*
X95415Y759365D01*
X95369Y759456D01*
X95320Y759545D01*
X95268Y759631D01*
X95212Y759716D01*
X95154Y759799D01*
X95092Y759879D01*
X95027Y759957D01*
X94960Y760033D01*
X94890Y760106D01*
X94817Y760176D01*
X94741Y760243D01*
X94663Y760308D01*
X94583Y760370D01*
X94500Y760428D01*
X94415Y760484D01*
X94329Y760536D01*
X94240Y760585D01*
X94149Y760631D01*
X94057Y760673D01*
X93964Y760712D01*
X93869Y760747D01*
X93772Y760779D01*
X93675Y760807D01*
X93577Y760831D01*
X93478Y760852D01*
X93378Y760869D01*
X93277Y760882D01*
X93176Y760891D01*
X93075Y760897D01*
X92974Y760899D01*
X89362Y760899D01*
X111736Y766318D02*
X111736Y750062D01*
X117154Y757287D02*
X111736Y766318D01*
X117154Y757287D02*
X122573Y766318D01*
X122573Y750062D01*
X132782Y756384D02*
X136846Y756384D01*
X132782Y756384D02*
X132670Y756382D01*
X132559Y756376D01*
X132448Y756366D01*
X132337Y756353D01*
X132227Y756335D01*
X132118Y756313D01*
X132009Y756288D01*
X131901Y756259D01*
X131795Y756226D01*
X131689Y756189D01*
X131585Y756149D01*
X131483Y756105D01*
X131382Y756057D01*
X131283Y756006D01*
X131185Y755951D01*
X131090Y755893D01*
X130997Y755832D01*
X130906Y755767D01*
X130817Y755699D01*
X130731Y755628D01*
X130648Y755555D01*
X130567Y755478D01*
X130488Y755398D01*
X130413Y755316D01*
X130341Y755231D01*
X130271Y755144D01*
X130205Y755054D01*
X130142Y754962D01*
X130082Y754867D01*
X130026Y754771D01*
X129973Y754673D01*
X129924Y754573D01*
X129878Y754471D01*
X129836Y754368D01*
X129797Y754263D01*
X129762Y754157D01*
X129731Y754050D01*
X129704Y753942D01*
X129680Y753833D01*
X129661Y753723D01*
X129645Y753613D01*
X129633Y753502D01*
X129625Y753390D01*
X129621Y753279D01*
X129621Y753167D01*
X129625Y753056D01*
X129633Y752944D01*
X129645Y752833D01*
X129661Y752723D01*
X129680Y752613D01*
X129704Y752504D01*
X129731Y752396D01*
X129762Y752289D01*
X129797Y752183D01*
X129836Y752078D01*
X129878Y751975D01*
X129924Y751873D01*
X129973Y751773D01*
X130026Y751675D01*
X130082Y751579D01*
X130142Y751484D01*
X130205Y751392D01*
X130271Y751302D01*
X130341Y751215D01*
X130413Y751130D01*
X130488Y751048D01*
X130567Y750968D01*
X130648Y750891D01*
X130731Y750818D01*
X130817Y750747D01*
X130906Y750679D01*
X130997Y750614D01*
X131090Y750553D01*
X131185Y750495D01*
X131283Y750440D01*
X131382Y750389D01*
X131483Y750341D01*
X131585Y750297D01*
X131689Y750257D01*
X131795Y750220D01*
X131901Y750187D01*
X132009Y750158D01*
X132118Y750133D01*
X132227Y750111D01*
X132337Y750093D01*
X132448Y750080D01*
X132559Y750070D01*
X132670Y750064D01*
X132782Y750062D01*
X136846Y750062D01*
X136846Y758190D01*
X136845Y758190D02*
X136843Y758291D01*
X136837Y758392D01*
X136828Y758493D01*
X136815Y758594D01*
X136798Y758694D01*
X136777Y758793D01*
X136753Y758891D01*
X136725Y758988D01*
X136693Y759085D01*
X136658Y759180D01*
X136619Y759273D01*
X136577Y759365D01*
X136531Y759456D01*
X136482Y759545D01*
X136430Y759631D01*
X136374Y759716D01*
X136316Y759799D01*
X136254Y759879D01*
X136189Y759957D01*
X136122Y760033D01*
X136052Y760106D01*
X135979Y760176D01*
X135903Y760243D01*
X135825Y760308D01*
X135745Y760370D01*
X135662Y760428D01*
X135577Y760484D01*
X135491Y760536D01*
X135402Y760585D01*
X135311Y760631D01*
X135219Y760673D01*
X135126Y760712D01*
X135031Y760747D01*
X134934Y760779D01*
X134837Y760807D01*
X134739Y760831D01*
X134640Y760852D01*
X134540Y760869D01*
X134439Y760882D01*
X134338Y760891D01*
X134237Y760897D01*
X134136Y760899D01*
X130524Y760899D01*
X144283Y766318D02*
X144283Y750062D01*
X144283Y760899D02*
X148799Y760899D01*
X148903Y760897D01*
X149006Y760891D01*
X149110Y760881D01*
X149213Y760867D01*
X149315Y760849D01*
X149416Y760828D01*
X149517Y760802D01*
X149616Y760773D01*
X149715Y760740D01*
X149812Y760703D01*
X149907Y760662D01*
X150001Y760618D01*
X150093Y760570D01*
X150183Y760519D01*
X150272Y760464D01*
X150358Y760406D01*
X150441Y760344D01*
X150523Y760280D01*
X150601Y760212D01*
X150677Y760142D01*
X150751Y760069D01*
X150821Y759992D01*
X150889Y759914D01*
X150953Y759832D01*
X151015Y759749D01*
X151073Y759663D01*
X151128Y759574D01*
X151179Y759484D01*
X151227Y759392D01*
X151271Y759298D01*
X151312Y759203D01*
X151349Y759106D01*
X151382Y759007D01*
X151411Y758908D01*
X151437Y758807D01*
X151458Y758706D01*
X151476Y758604D01*
X151490Y758501D01*
X151500Y758397D01*
X151506Y758294D01*
X151508Y758190D01*
X151508Y750062D01*
X161439Y756384D02*
X165503Y756384D01*
X161439Y756384D02*
X161327Y756382D01*
X161216Y756376D01*
X161105Y756366D01*
X160994Y756353D01*
X160884Y756335D01*
X160775Y756313D01*
X160666Y756288D01*
X160558Y756259D01*
X160452Y756226D01*
X160346Y756189D01*
X160242Y756149D01*
X160140Y756105D01*
X160039Y756057D01*
X159940Y756006D01*
X159842Y755951D01*
X159747Y755893D01*
X159654Y755832D01*
X159563Y755767D01*
X159474Y755699D01*
X159388Y755628D01*
X159305Y755555D01*
X159224Y755478D01*
X159145Y755398D01*
X159070Y755316D01*
X158998Y755231D01*
X158928Y755144D01*
X158862Y755054D01*
X158799Y754962D01*
X158739Y754867D01*
X158683Y754771D01*
X158630Y754673D01*
X158581Y754573D01*
X158535Y754471D01*
X158493Y754368D01*
X158454Y754263D01*
X158419Y754157D01*
X158388Y754050D01*
X158361Y753942D01*
X158337Y753833D01*
X158318Y753723D01*
X158302Y753613D01*
X158290Y753502D01*
X158282Y753390D01*
X158278Y753279D01*
X158278Y753167D01*
X158282Y753056D01*
X158290Y752944D01*
X158302Y752833D01*
X158318Y752723D01*
X158337Y752613D01*
X158361Y752504D01*
X158388Y752396D01*
X158419Y752289D01*
X158454Y752183D01*
X158493Y752078D01*
X158535Y751975D01*
X158581Y751873D01*
X158630Y751773D01*
X158683Y751675D01*
X158739Y751579D01*
X158799Y751484D01*
X158862Y751392D01*
X158928Y751302D01*
X158998Y751215D01*
X159070Y751130D01*
X159145Y751048D01*
X159224Y750968D01*
X159305Y750891D01*
X159388Y750818D01*
X159474Y750747D01*
X159563Y750679D01*
X159654Y750614D01*
X159747Y750553D01*
X159842Y750495D01*
X159940Y750440D01*
X160039Y750389D01*
X160140Y750341D01*
X160242Y750297D01*
X160346Y750257D01*
X160452Y750220D01*
X160558Y750187D01*
X160666Y750158D01*
X160775Y750133D01*
X160884Y750111D01*
X160994Y750093D01*
X161105Y750080D01*
X161216Y750070D01*
X161327Y750064D01*
X161439Y750062D01*
X165503Y750062D01*
X165503Y758190D01*
X165501Y758291D01*
X165495Y758392D01*
X165486Y758493D01*
X165473Y758594D01*
X165456Y758694D01*
X165435Y758793D01*
X165411Y758891D01*
X165383Y758988D01*
X165351Y759085D01*
X165316Y759180D01*
X165277Y759273D01*
X165235Y759365D01*
X165189Y759456D01*
X165140Y759545D01*
X165088Y759631D01*
X165032Y759716D01*
X164974Y759799D01*
X164912Y759879D01*
X164847Y759957D01*
X164780Y760033D01*
X164710Y760106D01*
X164637Y760176D01*
X164561Y760243D01*
X164483Y760308D01*
X164403Y760370D01*
X164320Y760428D01*
X164235Y760484D01*
X164149Y760536D01*
X164060Y760585D01*
X163969Y760631D01*
X163877Y760673D01*
X163784Y760712D01*
X163689Y760747D01*
X163592Y760779D01*
X163495Y760807D01*
X163397Y760831D01*
X163298Y760852D01*
X163198Y760869D01*
X163097Y760882D01*
X162996Y760891D01*
X162895Y760897D01*
X162794Y760899D01*
X159181Y760899D01*
X172941Y760899D02*
X172941Y750062D01*
X172941Y760899D02*
X177456Y760899D01*
X177560Y760897D01*
X177663Y760891D01*
X177767Y760881D01*
X177870Y760867D01*
X177972Y760849D01*
X178073Y760828D01*
X178174Y760802D01*
X178273Y760773D01*
X178372Y760740D01*
X178469Y760703D01*
X178564Y760662D01*
X178658Y760618D01*
X178750Y760570D01*
X178840Y760519D01*
X178929Y760464D01*
X179015Y760406D01*
X179098Y760344D01*
X179180Y760280D01*
X179258Y760212D01*
X179334Y760142D01*
X179408Y760069D01*
X179478Y759992D01*
X179546Y759914D01*
X179610Y759832D01*
X179672Y759749D01*
X179730Y759663D01*
X179785Y759574D01*
X179836Y759484D01*
X179884Y759392D01*
X179928Y759298D01*
X179969Y759203D01*
X180006Y759106D01*
X180039Y759007D01*
X180068Y758908D01*
X180094Y758807D01*
X180115Y758706D01*
X180133Y758604D01*
X180147Y758501D01*
X180157Y758397D01*
X180163Y758294D01*
X180165Y758190D01*
X180165Y750062D01*
D11*
X76200Y577850D02*
X76200Y565150D01*
X76200Y615950D02*
X76200Y628650D01*
X82550Y622300D02*
X69850Y622300D01*
D10*
X76200Y640080D02*
X83820Y647700D01*
X119380Y647700D01*
X127000Y640080D01*
X127000Y553720D01*
X119380Y546100D01*
X83820Y546100D01*
X76200Y553720D01*
D12*
X76793Y588857D02*
X76793Y592413D01*
X76793Y588857D02*
X76791Y588762D01*
X76785Y588666D01*
X76776Y588571D01*
X76762Y588477D01*
X76745Y588383D01*
X76724Y588290D01*
X76699Y588197D01*
X76671Y588106D01*
X76639Y588016D01*
X76603Y587928D01*
X76564Y587841D01*
X76521Y587755D01*
X76475Y587671D01*
X76426Y587590D01*
X76373Y587510D01*
X76317Y587433D01*
X76259Y587357D01*
X76197Y587285D01*
X76132Y587215D01*
X76064Y587147D01*
X75994Y587082D01*
X75922Y587020D01*
X75846Y586962D01*
X75769Y586906D01*
X75689Y586853D01*
X75607Y586804D01*
X75524Y586758D01*
X75438Y586715D01*
X75351Y586676D01*
X75263Y586640D01*
X75173Y586608D01*
X75082Y586580D01*
X74989Y586555D01*
X74896Y586534D01*
X74802Y586517D01*
X74708Y586503D01*
X74613Y586494D01*
X74517Y586488D01*
X74422Y586486D01*
X73829Y586486D01*
X73722Y586488D01*
X73615Y586494D01*
X73509Y586503D01*
X73403Y586517D01*
X73297Y586534D01*
X73192Y586555D01*
X73088Y586580D01*
X72985Y586609D01*
X72883Y586641D01*
X72782Y586677D01*
X72683Y586717D01*
X72585Y586760D01*
X72489Y586807D01*
X72394Y586857D01*
X72301Y586910D01*
X72211Y586967D01*
X72122Y587027D01*
X72036Y587090D01*
X71952Y587156D01*
X71870Y587226D01*
X71791Y587298D01*
X71715Y587373D01*
X71641Y587451D01*
X71571Y587531D01*
X71503Y587614D01*
X71438Y587699D01*
X71377Y587786D01*
X71318Y587876D01*
X71263Y587968D01*
X71211Y588061D01*
X71163Y588157D01*
X71118Y588254D01*
X71076Y588352D01*
X71039Y588452D01*
X71004Y588554D01*
X70974Y588656D01*
X70947Y588760D01*
X70924Y588864D01*
X70905Y588970D01*
X70890Y589076D01*
X70878Y589182D01*
X70870Y589289D01*
X70866Y589396D01*
X70866Y589502D01*
X70870Y589609D01*
X70878Y589716D01*
X70890Y589822D01*
X70905Y589928D01*
X70924Y590034D01*
X70947Y590138D01*
X70974Y590242D01*
X71004Y590344D01*
X71039Y590446D01*
X71076Y590546D01*
X71118Y590644D01*
X71163Y590741D01*
X71211Y590837D01*
X71263Y590931D01*
X71318Y591022D01*
X71377Y591112D01*
X71438Y591199D01*
X71503Y591284D01*
X71571Y591367D01*
X71641Y591447D01*
X71715Y591525D01*
X71791Y591600D01*
X71870Y591672D01*
X71952Y591742D01*
X72036Y591808D01*
X72122Y591871D01*
X72211Y591931D01*
X72301Y591988D01*
X72394Y592041D01*
X72489Y592091D01*
X72585Y592138D01*
X72683Y592181D01*
X72782Y592221D01*
X72883Y592257D01*
X72985Y592289D01*
X73088Y592318D01*
X73192Y592343D01*
X73297Y592364D01*
X73403Y592381D01*
X73509Y592395D01*
X73615Y592404D01*
X73722Y592410D01*
X73829Y592412D01*
X73829Y592413D02*
X76793Y592413D01*
X76793Y592412D02*
X76928Y592410D01*
X77064Y592404D01*
X77199Y592395D01*
X77333Y592381D01*
X77468Y592364D01*
X77601Y592343D01*
X77735Y592318D01*
X77867Y592289D01*
X77998Y592256D01*
X78129Y592220D01*
X78258Y592180D01*
X78386Y592136D01*
X78513Y592089D01*
X78639Y592038D01*
X78762Y591984D01*
X78885Y591926D01*
X79005Y591864D01*
X79124Y591799D01*
X79241Y591731D01*
X79356Y591659D01*
X79469Y591585D01*
X79580Y591507D01*
X79688Y591425D01*
X79794Y591341D01*
X79898Y591254D01*
X79999Y591164D01*
X80097Y591071D01*
X80193Y590975D01*
X80286Y590877D01*
X80376Y590776D01*
X80463Y590672D01*
X80547Y590566D01*
X80629Y590458D01*
X80707Y590347D01*
X80781Y590234D01*
X80853Y590119D01*
X80921Y590002D01*
X80986Y589883D01*
X81048Y589763D01*
X81106Y589640D01*
X81160Y589517D01*
X81211Y589391D01*
X81258Y589264D01*
X81302Y589136D01*
X81342Y589007D01*
X81378Y588876D01*
X81411Y588745D01*
X81440Y588613D01*
X81465Y588479D01*
X81486Y588346D01*
X81503Y588211D01*
X81517Y588077D01*
X81526Y587942D01*
X81532Y587806D01*
X81534Y587671D01*
X81534Y600879D02*
X70866Y597323D01*
X70866Y604435D02*
X81534Y600879D01*
D13*
X56515Y578485D02*
X56515Y576580D01*
X56515Y578485D02*
X62865Y578485D01*
X62865Y574675D01*
X62863Y574575D01*
X62857Y574476D01*
X62847Y574376D01*
X62834Y574278D01*
X62816Y574179D01*
X62795Y574082D01*
X62770Y573986D01*
X62741Y573890D01*
X62708Y573796D01*
X62672Y573703D01*
X62632Y573612D01*
X62588Y573522D01*
X62541Y573434D01*
X62491Y573348D01*
X62437Y573264D01*
X62380Y573182D01*
X62320Y573103D01*
X62256Y573025D01*
X62190Y572951D01*
X62121Y572879D01*
X62049Y572810D01*
X61975Y572744D01*
X61897Y572680D01*
X61818Y572620D01*
X61736Y572563D01*
X61652Y572509D01*
X61566Y572459D01*
X61478Y572412D01*
X61388Y572368D01*
X61297Y572328D01*
X61204Y572292D01*
X61110Y572259D01*
X61014Y572230D01*
X60918Y572205D01*
X60821Y572184D01*
X60722Y572166D01*
X60624Y572153D01*
X60524Y572143D01*
X60425Y572137D01*
X60325Y572135D01*
X53975Y572135D01*
X53875Y572137D01*
X53776Y572143D01*
X53676Y572153D01*
X53578Y572166D01*
X53479Y572184D01*
X53382Y572205D01*
X53286Y572230D01*
X53190Y572259D01*
X53096Y572292D01*
X53003Y572328D01*
X52912Y572368D01*
X52822Y572412D01*
X52734Y572459D01*
X52648Y572509D01*
X52564Y572563D01*
X52482Y572620D01*
X52403Y572680D01*
X52325Y572744D01*
X52251Y572810D01*
X52179Y572879D01*
X52110Y572951D01*
X52044Y573025D01*
X51980Y573103D01*
X51920Y573182D01*
X51863Y573264D01*
X51809Y573348D01*
X51759Y573434D01*
X51712Y573522D01*
X51668Y573612D01*
X51628Y573703D01*
X51592Y573796D01*
X51559Y573890D01*
X51530Y573986D01*
X51505Y574082D01*
X51484Y574179D01*
X51466Y574278D01*
X51453Y574376D01*
X51443Y574476D01*
X51437Y574575D01*
X51435Y574675D01*
X51435Y578485D01*
X53975Y583946D02*
X51435Y587121D01*
X62865Y587121D01*
X62865Y583946D02*
X62865Y590296D01*
D11*
X63500Y196850D02*
X63500Y184150D01*
X63500Y234950D02*
X63500Y247650D01*
X69850Y241300D02*
X57150Y241300D01*
D10*
X63500Y259080D02*
X71120Y266700D01*
X106680Y266700D01*
X114300Y259080D01*
X114300Y172720D01*
X106680Y165100D01*
X71120Y165100D01*
X63500Y172720D01*
D12*
X64093Y207857D02*
X64093Y211413D01*
X64093Y207857D02*
X64091Y207762D01*
X64085Y207666D01*
X64076Y207571D01*
X64062Y207477D01*
X64045Y207383D01*
X64024Y207290D01*
X63999Y207197D01*
X63971Y207106D01*
X63939Y207016D01*
X63903Y206928D01*
X63864Y206841D01*
X63821Y206755D01*
X63775Y206671D01*
X63726Y206590D01*
X63673Y206510D01*
X63617Y206433D01*
X63559Y206357D01*
X63497Y206285D01*
X63432Y206215D01*
X63364Y206147D01*
X63294Y206082D01*
X63222Y206020D01*
X63146Y205962D01*
X63069Y205906D01*
X62989Y205853D01*
X62907Y205804D01*
X62824Y205758D01*
X62738Y205715D01*
X62651Y205676D01*
X62563Y205640D01*
X62473Y205608D01*
X62382Y205580D01*
X62289Y205555D01*
X62196Y205534D01*
X62102Y205517D01*
X62008Y205503D01*
X61913Y205494D01*
X61817Y205488D01*
X61722Y205486D01*
X61129Y205486D01*
X61022Y205488D01*
X60915Y205494D01*
X60809Y205503D01*
X60703Y205517D01*
X60597Y205534D01*
X60492Y205555D01*
X60388Y205580D01*
X60285Y205609D01*
X60183Y205641D01*
X60082Y205677D01*
X59983Y205717D01*
X59885Y205760D01*
X59789Y205807D01*
X59694Y205857D01*
X59601Y205910D01*
X59511Y205967D01*
X59422Y206027D01*
X59336Y206090D01*
X59252Y206156D01*
X59170Y206226D01*
X59091Y206298D01*
X59015Y206373D01*
X58941Y206451D01*
X58871Y206531D01*
X58803Y206614D01*
X58738Y206699D01*
X58677Y206786D01*
X58618Y206876D01*
X58563Y206968D01*
X58511Y207061D01*
X58463Y207157D01*
X58418Y207254D01*
X58376Y207352D01*
X58339Y207452D01*
X58304Y207554D01*
X58274Y207656D01*
X58247Y207760D01*
X58224Y207864D01*
X58205Y207970D01*
X58190Y208076D01*
X58178Y208182D01*
X58170Y208289D01*
X58166Y208396D01*
X58166Y208502D01*
X58170Y208609D01*
X58178Y208716D01*
X58190Y208822D01*
X58205Y208928D01*
X58224Y209034D01*
X58247Y209138D01*
X58274Y209242D01*
X58304Y209344D01*
X58339Y209446D01*
X58376Y209546D01*
X58418Y209644D01*
X58463Y209741D01*
X58511Y209837D01*
X58563Y209931D01*
X58618Y210022D01*
X58677Y210112D01*
X58738Y210199D01*
X58803Y210284D01*
X58871Y210367D01*
X58941Y210447D01*
X59015Y210525D01*
X59091Y210600D01*
X59170Y210672D01*
X59252Y210742D01*
X59336Y210808D01*
X59422Y210871D01*
X59511Y210931D01*
X59601Y210988D01*
X59694Y211041D01*
X59789Y211091D01*
X59885Y211138D01*
X59983Y211181D01*
X60082Y211221D01*
X60183Y211257D01*
X60285Y211289D01*
X60388Y211318D01*
X60492Y211343D01*
X60597Y211364D01*
X60703Y211381D01*
X60809Y211395D01*
X60915Y211404D01*
X61022Y211410D01*
X61129Y211412D01*
X61129Y211413D02*
X64093Y211413D01*
X64093Y211412D02*
X64228Y211410D01*
X64364Y211404D01*
X64499Y211395D01*
X64633Y211381D01*
X64768Y211364D01*
X64901Y211343D01*
X65035Y211318D01*
X65167Y211289D01*
X65298Y211256D01*
X65429Y211220D01*
X65558Y211180D01*
X65686Y211136D01*
X65813Y211089D01*
X65939Y211038D01*
X66062Y210984D01*
X66185Y210926D01*
X66305Y210864D01*
X66424Y210799D01*
X66541Y210731D01*
X66656Y210659D01*
X66769Y210585D01*
X66880Y210507D01*
X66988Y210425D01*
X67094Y210341D01*
X67198Y210254D01*
X67299Y210164D01*
X67397Y210071D01*
X67493Y209975D01*
X67586Y209877D01*
X67676Y209776D01*
X67763Y209672D01*
X67847Y209566D01*
X67929Y209458D01*
X68007Y209347D01*
X68081Y209234D01*
X68153Y209119D01*
X68221Y209002D01*
X68286Y208883D01*
X68348Y208763D01*
X68406Y208640D01*
X68460Y208517D01*
X68511Y208391D01*
X68558Y208264D01*
X68602Y208136D01*
X68642Y208007D01*
X68678Y207876D01*
X68711Y207745D01*
X68740Y207613D01*
X68765Y207479D01*
X68786Y207346D01*
X68803Y207211D01*
X68817Y207077D01*
X68826Y206942D01*
X68832Y206806D01*
X68834Y206671D01*
X68834Y219879D02*
X58166Y216323D01*
X58166Y223435D02*
X68834Y219879D01*
D13*
X43815Y197485D02*
X43815Y195580D01*
X43815Y197485D02*
X50165Y197485D01*
X50165Y193675D01*
X50163Y193575D01*
X50157Y193476D01*
X50147Y193376D01*
X50134Y193278D01*
X50116Y193179D01*
X50095Y193082D01*
X50070Y192986D01*
X50041Y192890D01*
X50008Y192796D01*
X49972Y192703D01*
X49932Y192612D01*
X49888Y192522D01*
X49841Y192434D01*
X49791Y192348D01*
X49737Y192264D01*
X49680Y192182D01*
X49620Y192103D01*
X49556Y192025D01*
X49490Y191951D01*
X49421Y191879D01*
X49349Y191810D01*
X49275Y191744D01*
X49197Y191680D01*
X49118Y191620D01*
X49036Y191563D01*
X48952Y191509D01*
X48866Y191459D01*
X48778Y191412D01*
X48688Y191368D01*
X48597Y191328D01*
X48504Y191292D01*
X48410Y191259D01*
X48314Y191230D01*
X48218Y191205D01*
X48121Y191184D01*
X48022Y191166D01*
X47924Y191153D01*
X47824Y191143D01*
X47725Y191137D01*
X47625Y191135D01*
X41275Y191135D01*
X41175Y191137D01*
X41076Y191143D01*
X40976Y191153D01*
X40878Y191166D01*
X40779Y191184D01*
X40682Y191205D01*
X40586Y191230D01*
X40490Y191259D01*
X40396Y191292D01*
X40303Y191328D01*
X40212Y191368D01*
X40122Y191412D01*
X40034Y191459D01*
X39948Y191509D01*
X39864Y191563D01*
X39782Y191620D01*
X39703Y191680D01*
X39625Y191744D01*
X39551Y191810D01*
X39479Y191879D01*
X39410Y191951D01*
X39344Y192025D01*
X39280Y192103D01*
X39220Y192182D01*
X39163Y192264D01*
X39109Y192348D01*
X39059Y192434D01*
X39012Y192522D01*
X38968Y192612D01*
X38928Y192703D01*
X38892Y192796D01*
X38859Y192890D01*
X38830Y192986D01*
X38805Y193082D01*
X38784Y193179D01*
X38766Y193278D01*
X38753Y193376D01*
X38743Y193476D01*
X38737Y193575D01*
X38735Y193675D01*
X38735Y197485D01*
X38735Y206439D02*
X38737Y206543D01*
X38743Y206648D01*
X38752Y206752D01*
X38765Y206855D01*
X38783Y206958D01*
X38803Y207060D01*
X38828Y207162D01*
X38856Y207262D01*
X38888Y207362D01*
X38924Y207460D01*
X38963Y207557D01*
X39005Y207652D01*
X39051Y207746D01*
X39101Y207838D01*
X39153Y207928D01*
X39209Y208016D01*
X39269Y208102D01*
X39331Y208186D01*
X39396Y208267D01*
X39464Y208346D01*
X39536Y208423D01*
X39609Y208496D01*
X39686Y208568D01*
X39765Y208636D01*
X39846Y208701D01*
X39930Y208763D01*
X40016Y208823D01*
X40104Y208879D01*
X40194Y208931D01*
X40286Y208981D01*
X40380Y209027D01*
X40475Y209069D01*
X40572Y209108D01*
X40670Y209144D01*
X40770Y209176D01*
X40870Y209204D01*
X40972Y209229D01*
X41074Y209249D01*
X41177Y209267D01*
X41280Y209280D01*
X41384Y209289D01*
X41489Y209295D01*
X41593Y209297D01*
X38735Y206439D02*
X38737Y206321D01*
X38743Y206202D01*
X38752Y206084D01*
X38765Y205967D01*
X38783Y205850D01*
X38803Y205733D01*
X38828Y205617D01*
X38856Y205502D01*
X38889Y205389D01*
X38924Y205276D01*
X38964Y205164D01*
X39006Y205054D01*
X39053Y204945D01*
X39103Y204837D01*
X39156Y204732D01*
X39213Y204628D01*
X39273Y204526D01*
X39336Y204426D01*
X39403Y204328D01*
X39472Y204232D01*
X39545Y204139D01*
X39621Y204048D01*
X39699Y203959D01*
X39781Y203873D01*
X39865Y203790D01*
X39951Y203709D01*
X40041Y203632D01*
X40132Y203557D01*
X40226Y203485D01*
X40323Y203416D01*
X40421Y203351D01*
X40522Y203288D01*
X40625Y203229D01*
X40729Y203173D01*
X40835Y203121D01*
X40943Y203072D01*
X41052Y203027D01*
X41163Y202985D01*
X41275Y202947D01*
X43815Y208344D02*
X43740Y208420D01*
X43661Y208495D01*
X43580Y208566D01*
X43496Y208635D01*
X43410Y208700D01*
X43322Y208762D01*
X43232Y208822D01*
X43140Y208878D01*
X43045Y208931D01*
X42949Y208980D01*
X42851Y209026D01*
X42752Y209069D01*
X42651Y209108D01*
X42549Y209143D01*
X42446Y209175D01*
X42342Y209203D01*
X42237Y209228D01*
X42130Y209249D01*
X42024Y209266D01*
X41917Y209279D01*
X41809Y209288D01*
X41701Y209294D01*
X41593Y209296D01*
X43815Y208344D02*
X50165Y202946D01*
X50165Y209296D01*
D14*
X629158Y210058D02*
X629158Y221742D01*
X629158Y210058D02*
X634351Y210058D01*
X639064Y210058D02*
X644257Y210058D01*
X639064Y210058D02*
X639064Y221742D01*
X644257Y221742D01*
X642959Y216549D02*
X639064Y216549D01*
X648947Y221742D02*
X648947Y210058D01*
X648947Y221742D02*
X652193Y221742D01*
X652306Y221740D01*
X652419Y221734D01*
X652532Y221724D01*
X652645Y221710D01*
X652757Y221693D01*
X652868Y221671D01*
X652978Y221646D01*
X653088Y221616D01*
X653196Y221583D01*
X653303Y221546D01*
X653409Y221506D01*
X653513Y221461D01*
X653616Y221413D01*
X653717Y221362D01*
X653816Y221307D01*
X653913Y221249D01*
X654008Y221187D01*
X654101Y221122D01*
X654191Y221054D01*
X654279Y220983D01*
X654365Y220908D01*
X654448Y220831D01*
X654528Y220751D01*
X654605Y220668D01*
X654680Y220582D01*
X654751Y220494D01*
X654819Y220404D01*
X654884Y220311D01*
X654946Y220216D01*
X655004Y220119D01*
X655059Y220020D01*
X655110Y219919D01*
X655158Y219816D01*
X655203Y219712D01*
X655243Y219606D01*
X655280Y219499D01*
X655313Y219391D01*
X655343Y219281D01*
X655368Y219171D01*
X655390Y219060D01*
X655407Y218948D01*
X655421Y218835D01*
X655431Y218722D01*
X655437Y218609D01*
X655439Y218496D01*
X655439Y213304D01*
X655437Y213191D01*
X655431Y213078D01*
X655421Y212965D01*
X655407Y212852D01*
X655390Y212740D01*
X655368Y212629D01*
X655343Y212519D01*
X655313Y212409D01*
X655280Y212301D01*
X655243Y212194D01*
X655203Y212088D01*
X655158Y211984D01*
X655110Y211881D01*
X655059Y211780D01*
X655004Y211681D01*
X654946Y211584D01*
X654884Y211489D01*
X654819Y211396D01*
X654751Y211306D01*
X654680Y211218D01*
X654605Y211132D01*
X654528Y211049D01*
X654448Y210969D01*
X654365Y210892D01*
X654279Y210817D01*
X654191Y210746D01*
X654101Y210678D01*
X654008Y210613D01*
X653913Y210551D01*
X653816Y210493D01*
X653717Y210438D01*
X653616Y210387D01*
X653513Y210339D01*
X653409Y210294D01*
X653303Y210254D01*
X653196Y210217D01*
X653088Y210184D01*
X652978Y210154D01*
X652868Y210129D01*
X652757Y210107D01*
X652645Y210090D01*
X652532Y210076D01*
X652419Y210066D01*
X652306Y210060D01*
X652193Y210058D01*
X648947Y210058D01*
X660758Y219146D02*
X664004Y221742D01*
X664004Y210058D01*
X667249Y210058D02*
X660758Y210058D01*
X629158Y400558D02*
X629158Y412242D01*
X629158Y400558D02*
X634351Y400558D01*
X639064Y400558D02*
X644257Y400558D01*
X639064Y400558D02*
X639064Y412242D01*
X644257Y412242D01*
X642959Y407049D02*
X639064Y407049D01*
X648947Y412242D02*
X648947Y400558D01*
X648947Y412242D02*
X652193Y412242D01*
X652306Y412240D01*
X652419Y412234D01*
X652532Y412224D01*
X652645Y412210D01*
X652757Y412193D01*
X652868Y412171D01*
X652978Y412146D01*
X653088Y412116D01*
X653196Y412083D01*
X653303Y412046D01*
X653409Y412006D01*
X653513Y411961D01*
X653616Y411913D01*
X653717Y411862D01*
X653816Y411807D01*
X653913Y411749D01*
X654008Y411687D01*
X654101Y411622D01*
X654191Y411554D01*
X654279Y411483D01*
X654365Y411408D01*
X654448Y411331D01*
X654528Y411251D01*
X654605Y411168D01*
X654680Y411082D01*
X654751Y410994D01*
X654819Y410904D01*
X654884Y410811D01*
X654946Y410716D01*
X655004Y410619D01*
X655059Y410520D01*
X655110Y410419D01*
X655158Y410316D01*
X655203Y410212D01*
X655243Y410106D01*
X655280Y409999D01*
X655313Y409891D01*
X655343Y409781D01*
X655368Y409671D01*
X655390Y409560D01*
X655407Y409448D01*
X655421Y409335D01*
X655431Y409222D01*
X655437Y409109D01*
X655439Y408996D01*
X655439Y403804D01*
X655437Y403691D01*
X655431Y403578D01*
X655421Y403465D01*
X655407Y403352D01*
X655390Y403240D01*
X655368Y403129D01*
X655343Y403019D01*
X655313Y402909D01*
X655280Y402801D01*
X655243Y402694D01*
X655203Y402588D01*
X655158Y402484D01*
X655110Y402381D01*
X655059Y402280D01*
X655004Y402181D01*
X654946Y402084D01*
X654884Y401989D01*
X654819Y401896D01*
X654751Y401806D01*
X654680Y401718D01*
X654605Y401632D01*
X654528Y401549D01*
X654448Y401469D01*
X654365Y401392D01*
X654279Y401317D01*
X654191Y401246D01*
X654101Y401178D01*
X654008Y401113D01*
X653913Y401051D01*
X653816Y400993D01*
X653717Y400938D01*
X653616Y400887D01*
X653513Y400839D01*
X653409Y400794D01*
X653303Y400754D01*
X653196Y400717D01*
X653088Y400684D01*
X652978Y400654D01*
X652868Y400629D01*
X652757Y400607D01*
X652645Y400590D01*
X652532Y400576D01*
X652419Y400566D01*
X652306Y400560D01*
X652193Y400558D01*
X648947Y400558D01*
X664328Y412242D02*
X664435Y412240D01*
X664541Y412234D01*
X664647Y412224D01*
X664753Y412211D01*
X664859Y412193D01*
X664963Y412172D01*
X665067Y412147D01*
X665170Y412118D01*
X665271Y412086D01*
X665371Y412049D01*
X665470Y412009D01*
X665568Y411966D01*
X665664Y411919D01*
X665758Y411868D01*
X665850Y411814D01*
X665940Y411757D01*
X666028Y411697D01*
X666113Y411633D01*
X666196Y411566D01*
X666277Y411496D01*
X666355Y411424D01*
X666431Y411348D01*
X666503Y411270D01*
X666573Y411189D01*
X666640Y411106D01*
X666704Y411021D01*
X666764Y410933D01*
X666821Y410843D01*
X666875Y410751D01*
X666926Y410657D01*
X666973Y410561D01*
X667016Y410463D01*
X667056Y410364D01*
X667093Y410264D01*
X667125Y410163D01*
X667154Y410060D01*
X667179Y409956D01*
X667200Y409852D01*
X667218Y409746D01*
X667231Y409640D01*
X667241Y409534D01*
X667247Y409428D01*
X667249Y409321D01*
X664328Y412242D02*
X664207Y412240D01*
X664086Y412234D01*
X663966Y412224D01*
X663845Y412211D01*
X663726Y412193D01*
X663606Y412172D01*
X663488Y412147D01*
X663371Y412118D01*
X663254Y412085D01*
X663139Y412049D01*
X663025Y412008D01*
X662912Y411965D01*
X662800Y411917D01*
X662691Y411866D01*
X662583Y411811D01*
X662476Y411753D01*
X662372Y411692D01*
X662270Y411627D01*
X662170Y411559D01*
X662072Y411488D01*
X661976Y411414D01*
X661883Y411337D01*
X661793Y411256D01*
X661705Y411173D01*
X661620Y411087D01*
X661537Y410998D01*
X661458Y410907D01*
X661381Y410813D01*
X661308Y410717D01*
X661238Y410619D01*
X661171Y410518D01*
X661107Y410415D01*
X661047Y410310D01*
X660990Y410203D01*
X660936Y410095D01*
X660886Y409985D01*
X660840Y409873D01*
X660797Y409760D01*
X660758Y409645D01*
X666276Y407049D02*
X666355Y407126D01*
X666431Y407207D01*
X666504Y407290D01*
X666574Y407375D01*
X666641Y407463D01*
X666705Y407553D01*
X666765Y407645D01*
X666822Y407740D01*
X666876Y407836D01*
X666927Y407934D01*
X666974Y408034D01*
X667018Y408136D01*
X667058Y408239D01*
X667094Y408343D01*
X667126Y408449D01*
X667155Y408555D01*
X667180Y408663D01*
X667202Y408771D01*
X667219Y408881D01*
X667233Y408990D01*
X667242Y409100D01*
X667248Y409211D01*
X667250Y409321D01*
X666276Y407049D02*
X660758Y400558D01*
X667249Y400558D01*
X616458Y743458D02*
X616458Y755142D01*
X616458Y743458D02*
X621651Y743458D01*
X626364Y743458D02*
X631557Y743458D01*
X626364Y743458D02*
X626364Y755142D01*
X631557Y755142D01*
X630259Y749949D02*
X626364Y749949D01*
X636247Y755142D02*
X636247Y743458D01*
X636247Y755142D02*
X639493Y755142D01*
X639606Y755140D01*
X639719Y755134D01*
X639832Y755124D01*
X639945Y755110D01*
X640057Y755093D01*
X640168Y755071D01*
X640278Y755046D01*
X640388Y755016D01*
X640496Y754983D01*
X640603Y754946D01*
X640709Y754906D01*
X640813Y754861D01*
X640916Y754813D01*
X641017Y754762D01*
X641116Y754707D01*
X641213Y754649D01*
X641308Y754587D01*
X641401Y754522D01*
X641491Y754454D01*
X641579Y754383D01*
X641665Y754308D01*
X641748Y754231D01*
X641828Y754151D01*
X641905Y754068D01*
X641980Y753982D01*
X642051Y753894D01*
X642119Y753804D01*
X642184Y753711D01*
X642246Y753616D01*
X642304Y753519D01*
X642359Y753420D01*
X642410Y753319D01*
X642458Y753216D01*
X642503Y753112D01*
X642543Y753006D01*
X642580Y752899D01*
X642613Y752791D01*
X642643Y752681D01*
X642668Y752571D01*
X642690Y752460D01*
X642707Y752348D01*
X642721Y752235D01*
X642731Y752122D01*
X642737Y752009D01*
X642739Y751896D01*
X642739Y746704D01*
X642737Y746591D01*
X642731Y746478D01*
X642721Y746365D01*
X642707Y746252D01*
X642690Y746140D01*
X642668Y746029D01*
X642643Y745919D01*
X642613Y745809D01*
X642580Y745701D01*
X642543Y745594D01*
X642503Y745488D01*
X642458Y745384D01*
X642410Y745281D01*
X642359Y745180D01*
X642304Y745081D01*
X642246Y744984D01*
X642184Y744889D01*
X642119Y744796D01*
X642051Y744706D01*
X641980Y744618D01*
X641905Y744532D01*
X641828Y744449D01*
X641748Y744369D01*
X641665Y744292D01*
X641579Y744217D01*
X641491Y744146D01*
X641401Y744078D01*
X641308Y744013D01*
X641213Y743951D01*
X641116Y743893D01*
X641017Y743838D01*
X640916Y743787D01*
X640813Y743739D01*
X640709Y743694D01*
X640603Y743654D01*
X640496Y743617D01*
X640388Y743584D01*
X640278Y743554D01*
X640168Y743529D01*
X640057Y743507D01*
X639945Y743490D01*
X639832Y743476D01*
X639719Y743466D01*
X639606Y743460D01*
X639493Y743458D01*
X636247Y743458D01*
X648058Y743458D02*
X651304Y743458D01*
X651417Y743460D01*
X651530Y743466D01*
X651643Y743476D01*
X651756Y743490D01*
X651868Y743507D01*
X651979Y743529D01*
X652089Y743554D01*
X652199Y743584D01*
X652307Y743617D01*
X652414Y743654D01*
X652520Y743694D01*
X652624Y743739D01*
X652727Y743787D01*
X652828Y743838D01*
X652927Y743893D01*
X653024Y743951D01*
X653119Y744013D01*
X653212Y744078D01*
X653302Y744146D01*
X653390Y744217D01*
X653476Y744292D01*
X653559Y744369D01*
X653639Y744449D01*
X653716Y744532D01*
X653791Y744618D01*
X653862Y744706D01*
X653930Y744796D01*
X653995Y744889D01*
X654057Y744984D01*
X654115Y745081D01*
X654170Y745180D01*
X654221Y745281D01*
X654269Y745384D01*
X654314Y745488D01*
X654354Y745594D01*
X654391Y745701D01*
X654424Y745809D01*
X654454Y745919D01*
X654479Y746029D01*
X654501Y746140D01*
X654518Y746252D01*
X654532Y746365D01*
X654542Y746478D01*
X654548Y746591D01*
X654550Y746704D01*
X654548Y746817D01*
X654542Y746930D01*
X654532Y747043D01*
X654518Y747156D01*
X654501Y747268D01*
X654479Y747379D01*
X654454Y747489D01*
X654424Y747599D01*
X654391Y747707D01*
X654354Y747814D01*
X654314Y747920D01*
X654269Y748024D01*
X654221Y748127D01*
X654170Y748228D01*
X654115Y748327D01*
X654057Y748424D01*
X653995Y748519D01*
X653930Y748612D01*
X653862Y748702D01*
X653791Y748790D01*
X653716Y748876D01*
X653639Y748959D01*
X653559Y749039D01*
X653476Y749116D01*
X653390Y749191D01*
X653302Y749262D01*
X653212Y749330D01*
X653119Y749395D01*
X653024Y749457D01*
X652927Y749515D01*
X652828Y749570D01*
X652727Y749621D01*
X652624Y749669D01*
X652520Y749714D01*
X652414Y749754D01*
X652307Y749791D01*
X652199Y749824D01*
X652089Y749854D01*
X651979Y749879D01*
X651868Y749901D01*
X651756Y749918D01*
X651643Y749932D01*
X651530Y749942D01*
X651417Y749948D01*
X651304Y749950D01*
X651953Y755142D02*
X648058Y755142D01*
X651953Y755142D02*
X652054Y755140D01*
X652154Y755134D01*
X652254Y755124D01*
X652354Y755111D01*
X652453Y755093D01*
X652552Y755072D01*
X652649Y755047D01*
X652746Y755018D01*
X652841Y754985D01*
X652935Y754949D01*
X653027Y754909D01*
X653118Y754866D01*
X653207Y754819D01*
X653294Y754769D01*
X653380Y754715D01*
X653463Y754658D01*
X653543Y754598D01*
X653622Y754535D01*
X653698Y754468D01*
X653771Y754399D01*
X653841Y754327D01*
X653909Y754253D01*
X653974Y754176D01*
X654035Y754096D01*
X654094Y754014D01*
X654149Y753930D01*
X654201Y753844D01*
X654250Y753756D01*
X654295Y753666D01*
X654337Y753574D01*
X654375Y753481D01*
X654409Y753386D01*
X654440Y753291D01*
X654467Y753194D01*
X654490Y753096D01*
X654510Y752997D01*
X654525Y752897D01*
X654537Y752797D01*
X654545Y752697D01*
X654549Y752596D01*
X654549Y752496D01*
X654545Y752395D01*
X654537Y752295D01*
X654525Y752195D01*
X654510Y752095D01*
X654490Y751996D01*
X654467Y751898D01*
X654440Y751801D01*
X654409Y751706D01*
X654375Y751611D01*
X654337Y751518D01*
X654295Y751426D01*
X654250Y751336D01*
X654201Y751248D01*
X654149Y751162D01*
X654094Y751078D01*
X654035Y750996D01*
X653974Y750916D01*
X653909Y750839D01*
X653841Y750765D01*
X653771Y750693D01*
X653698Y750624D01*
X653622Y750557D01*
X653543Y750494D01*
X653463Y750434D01*
X653380Y750377D01*
X653294Y750323D01*
X653207Y750273D01*
X653118Y750226D01*
X653027Y750183D01*
X652935Y750143D01*
X652841Y750107D01*
X652746Y750074D01*
X652649Y750045D01*
X652552Y750020D01*
X652453Y749999D01*
X652354Y749981D01*
X652254Y749968D01*
X652154Y749958D01*
X652054Y749952D01*
X651953Y749950D01*
X651953Y749949D02*
X649357Y749949D01*
X615451Y551942D02*
X615451Y540258D01*
X620643Y540258D01*
X625357Y540258D02*
X630549Y540258D01*
X625357Y540258D02*
X625357Y551942D01*
X630549Y551942D01*
X629251Y546749D02*
X625357Y546749D01*
X635240Y551942D02*
X635240Y540258D01*
X635240Y551942D02*
X638485Y551942D01*
X638598Y551940D01*
X638711Y551934D01*
X638824Y551924D01*
X638937Y551910D01*
X639049Y551893D01*
X639160Y551871D01*
X639270Y551846D01*
X639380Y551816D01*
X639488Y551783D01*
X639595Y551746D01*
X639701Y551706D01*
X639805Y551661D01*
X639908Y551613D01*
X640009Y551562D01*
X640108Y551507D01*
X640205Y551449D01*
X640300Y551387D01*
X640393Y551322D01*
X640483Y551254D01*
X640571Y551183D01*
X640657Y551108D01*
X640740Y551031D01*
X640820Y550951D01*
X640897Y550868D01*
X640972Y550782D01*
X641043Y550694D01*
X641111Y550604D01*
X641176Y550511D01*
X641238Y550416D01*
X641296Y550319D01*
X641351Y550220D01*
X641402Y550119D01*
X641450Y550016D01*
X641495Y549912D01*
X641535Y549806D01*
X641572Y549699D01*
X641605Y549591D01*
X641635Y549481D01*
X641660Y549371D01*
X641682Y549260D01*
X641699Y549148D01*
X641713Y549035D01*
X641723Y548922D01*
X641729Y548809D01*
X641731Y548696D01*
X641731Y543504D01*
X641732Y543504D02*
X641730Y543391D01*
X641724Y543278D01*
X641714Y543165D01*
X641700Y543052D01*
X641683Y542940D01*
X641661Y542829D01*
X641636Y542719D01*
X641606Y542609D01*
X641573Y542501D01*
X641536Y542394D01*
X641496Y542288D01*
X641451Y542184D01*
X641403Y542081D01*
X641352Y541980D01*
X641297Y541881D01*
X641239Y541784D01*
X641177Y541689D01*
X641112Y541596D01*
X641044Y541506D01*
X640973Y541418D01*
X640898Y541332D01*
X640821Y541249D01*
X640741Y541169D01*
X640658Y541092D01*
X640572Y541017D01*
X640484Y540946D01*
X640394Y540878D01*
X640301Y540813D01*
X640206Y540751D01*
X640109Y540693D01*
X640010Y540638D01*
X639909Y540587D01*
X639806Y540539D01*
X639702Y540494D01*
X639596Y540454D01*
X639489Y540417D01*
X639381Y540384D01*
X639271Y540354D01*
X639161Y540329D01*
X639050Y540307D01*
X638938Y540290D01*
X638825Y540276D01*
X638712Y540266D01*
X638599Y540260D01*
X638486Y540258D01*
X638485Y540258D02*
X635240Y540258D01*
X647051Y542854D02*
X649647Y551942D01*
X647051Y542854D02*
X653542Y542854D01*
X651595Y545451D02*
X651595Y540258D01*
D12*
X409200Y411750D02*
X251200Y411750D01*
X251200Y361650D01*
X409200Y361650D02*
X409200Y411750D01*
D15*
X311700Y411000D02*
X311700Y391625D01*
X311700Y381625D02*
X311700Y362250D01*
X348700Y391875D02*
X348700Y411500D01*
X348700Y381875D02*
X348700Y362250D01*
D12*
X397250Y361650D02*
X409200Y361650D01*
X364750Y361650D02*
X295650Y361650D01*
X263150Y361650D02*
X251200Y361650D01*
D14*
X254508Y419608D02*
X254508Y431292D01*
X257754Y431292D01*
X257867Y431290D01*
X257980Y431284D01*
X258093Y431274D01*
X258206Y431260D01*
X258318Y431243D01*
X258429Y431221D01*
X258539Y431196D01*
X258649Y431166D01*
X258757Y431133D01*
X258864Y431096D01*
X258970Y431056D01*
X259074Y431011D01*
X259177Y430963D01*
X259278Y430912D01*
X259377Y430857D01*
X259474Y430799D01*
X259569Y430737D01*
X259662Y430672D01*
X259752Y430604D01*
X259840Y430533D01*
X259926Y430458D01*
X260009Y430381D01*
X260089Y430301D01*
X260166Y430218D01*
X260241Y430132D01*
X260312Y430044D01*
X260380Y429954D01*
X260445Y429861D01*
X260507Y429766D01*
X260565Y429669D01*
X260620Y429570D01*
X260671Y429469D01*
X260719Y429366D01*
X260764Y429262D01*
X260804Y429156D01*
X260841Y429049D01*
X260874Y428941D01*
X260904Y428831D01*
X260929Y428721D01*
X260951Y428610D01*
X260968Y428498D01*
X260982Y428385D01*
X260992Y428272D01*
X260998Y428159D01*
X261000Y428046D01*
X260998Y427933D01*
X260992Y427820D01*
X260982Y427707D01*
X260968Y427594D01*
X260951Y427482D01*
X260929Y427371D01*
X260904Y427261D01*
X260874Y427151D01*
X260841Y427043D01*
X260804Y426936D01*
X260764Y426830D01*
X260719Y426726D01*
X260671Y426623D01*
X260620Y426522D01*
X260565Y426423D01*
X260507Y426326D01*
X260445Y426231D01*
X260380Y426138D01*
X260312Y426048D01*
X260241Y425960D01*
X260166Y425874D01*
X260089Y425791D01*
X260009Y425711D01*
X259926Y425634D01*
X259840Y425559D01*
X259752Y425488D01*
X259662Y425420D01*
X259569Y425355D01*
X259474Y425293D01*
X259377Y425235D01*
X259278Y425180D01*
X259177Y425129D01*
X259074Y425081D01*
X258970Y425036D01*
X258864Y424996D01*
X258757Y424959D01*
X258649Y424926D01*
X258539Y424896D01*
X258429Y424871D01*
X258318Y424849D01*
X258206Y424832D01*
X258093Y424818D01*
X257980Y424808D01*
X257867Y424802D01*
X257754Y424800D01*
X257754Y424801D02*
X254508Y424801D01*
X258403Y424801D02*
X260999Y419608D01*
X265864Y428696D02*
X269110Y431292D01*
X269110Y419608D01*
X272355Y419608D02*
X265864Y419608D01*
D12*
X251200Y754650D02*
X409200Y754650D01*
X251200Y754650D02*
X251200Y704550D01*
X409200Y704550D02*
X409200Y754650D01*
D15*
X311700Y753900D02*
X311700Y734525D01*
X311700Y724525D02*
X311700Y705150D01*
X348700Y734775D02*
X348700Y754400D01*
X348700Y724775D02*
X348700Y705150D01*
D12*
X397250Y704550D02*
X409200Y704550D01*
X364750Y704550D02*
X295650Y704550D01*
X263150Y704550D02*
X251200Y704550D01*
D14*
X254508Y762508D02*
X254508Y774192D01*
X257754Y774192D01*
X257867Y774190D01*
X257980Y774184D01*
X258093Y774174D01*
X258206Y774160D01*
X258318Y774143D01*
X258429Y774121D01*
X258539Y774096D01*
X258649Y774066D01*
X258757Y774033D01*
X258864Y773996D01*
X258970Y773956D01*
X259074Y773911D01*
X259177Y773863D01*
X259278Y773812D01*
X259377Y773757D01*
X259474Y773699D01*
X259569Y773637D01*
X259662Y773572D01*
X259752Y773504D01*
X259840Y773433D01*
X259926Y773358D01*
X260009Y773281D01*
X260089Y773201D01*
X260166Y773118D01*
X260241Y773032D01*
X260312Y772944D01*
X260380Y772854D01*
X260445Y772761D01*
X260507Y772666D01*
X260565Y772569D01*
X260620Y772470D01*
X260671Y772369D01*
X260719Y772266D01*
X260764Y772162D01*
X260804Y772056D01*
X260841Y771949D01*
X260874Y771841D01*
X260904Y771731D01*
X260929Y771621D01*
X260951Y771510D01*
X260968Y771398D01*
X260982Y771285D01*
X260992Y771172D01*
X260998Y771059D01*
X261000Y770946D01*
X260998Y770833D01*
X260992Y770720D01*
X260982Y770607D01*
X260968Y770494D01*
X260951Y770382D01*
X260929Y770271D01*
X260904Y770161D01*
X260874Y770051D01*
X260841Y769943D01*
X260804Y769836D01*
X260764Y769730D01*
X260719Y769626D01*
X260671Y769523D01*
X260620Y769422D01*
X260565Y769323D01*
X260507Y769226D01*
X260445Y769131D01*
X260380Y769038D01*
X260312Y768948D01*
X260241Y768860D01*
X260166Y768774D01*
X260089Y768691D01*
X260009Y768611D01*
X259926Y768534D01*
X259840Y768459D01*
X259752Y768388D01*
X259662Y768320D01*
X259569Y768255D01*
X259474Y768193D01*
X259377Y768135D01*
X259278Y768080D01*
X259177Y768029D01*
X259074Y767981D01*
X258970Y767936D01*
X258864Y767896D01*
X258757Y767859D01*
X258649Y767826D01*
X258539Y767796D01*
X258429Y767771D01*
X258318Y767749D01*
X258206Y767732D01*
X258093Y767718D01*
X257980Y767708D01*
X257867Y767702D01*
X257754Y767700D01*
X257754Y767701D02*
X254508Y767701D01*
X258403Y767701D02*
X260999Y762508D01*
X272355Y771271D02*
X272353Y771378D01*
X272347Y771484D01*
X272337Y771590D01*
X272324Y771696D01*
X272306Y771802D01*
X272285Y771906D01*
X272260Y772010D01*
X272231Y772113D01*
X272199Y772214D01*
X272162Y772314D01*
X272122Y772413D01*
X272079Y772511D01*
X272032Y772607D01*
X271981Y772701D01*
X271927Y772793D01*
X271870Y772883D01*
X271810Y772971D01*
X271746Y773056D01*
X271679Y773139D01*
X271609Y773220D01*
X271537Y773298D01*
X271461Y773374D01*
X271383Y773446D01*
X271302Y773516D01*
X271219Y773583D01*
X271134Y773647D01*
X271046Y773707D01*
X270956Y773764D01*
X270864Y773818D01*
X270770Y773869D01*
X270674Y773916D01*
X270576Y773959D01*
X270477Y773999D01*
X270377Y774036D01*
X270276Y774068D01*
X270173Y774097D01*
X270069Y774122D01*
X269965Y774143D01*
X269859Y774161D01*
X269753Y774174D01*
X269647Y774184D01*
X269541Y774190D01*
X269434Y774192D01*
X269313Y774190D01*
X269192Y774184D01*
X269072Y774174D01*
X268951Y774161D01*
X268832Y774143D01*
X268712Y774122D01*
X268594Y774097D01*
X268477Y774068D01*
X268360Y774035D01*
X268245Y773999D01*
X268131Y773958D01*
X268018Y773915D01*
X267906Y773867D01*
X267797Y773816D01*
X267689Y773761D01*
X267582Y773703D01*
X267478Y773642D01*
X267376Y773577D01*
X267276Y773509D01*
X267178Y773438D01*
X267082Y773364D01*
X266989Y773287D01*
X266899Y773206D01*
X266811Y773123D01*
X266726Y773037D01*
X266643Y772948D01*
X266564Y772857D01*
X266487Y772763D01*
X266414Y772667D01*
X266344Y772569D01*
X266277Y772468D01*
X266213Y772365D01*
X266153Y772260D01*
X266096Y772153D01*
X266042Y772045D01*
X265992Y771935D01*
X265946Y771823D01*
X265903Y771710D01*
X265864Y771595D01*
X271382Y768999D02*
X271461Y769076D01*
X271537Y769157D01*
X271610Y769240D01*
X271680Y769325D01*
X271747Y769413D01*
X271811Y769503D01*
X271871Y769595D01*
X271928Y769690D01*
X271982Y769786D01*
X272033Y769884D01*
X272080Y769984D01*
X272124Y770086D01*
X272164Y770189D01*
X272200Y770293D01*
X272232Y770399D01*
X272261Y770505D01*
X272286Y770613D01*
X272308Y770721D01*
X272325Y770831D01*
X272339Y770940D01*
X272348Y771050D01*
X272354Y771161D01*
X272356Y771271D01*
X271382Y768999D02*
X265864Y762508D01*
X272355Y762508D01*
M02*
